<svg width="64" height="64" viewBox="0 0 64 64" fill="none" xmlns="http://www.w3.org/2000/svg">
    <path d="M53.1568 20.991C53.1475 21.8265 53.0306 22.6374 52.8196 23.4109L40.4701 11.211C41.279 10.9811 42.1302 10.853 43.0091 10.8433L42.9777 8C36.1094 8.07621 30.5414 13.7143 30.5656 20.5649L30.5766 30.5765L20.5683 30.5655C20.5533 30.5654 20.5391 30.5654 20.5241 30.5654C13.6905 30.5654 8.07592 36.1246 8 42.9776L10.8433 43.009C10.8526 42.1725 10.9687 41.3609 11.1781 40.5871L23.5275 52.7866C22.719 53.018 21.8687 53.147 20.9909 53.1567L21.0224 56C27.8583 55.9242 33.4265 50.2891 33.4348 43.4352L33.4233 33.4234L43.4385 33.4347C50.289 33.4265 55.9241 27.8584 56 21.0225L53.1568 20.991ZM33.4201 30.5797L33.4139 24.9564L39.1129 30.5862L33.4201 30.5797ZM20.5276 33.4089C20.5389 33.4089 20.5505 33.409 20.5618 33.409L20.8369 33.4093L30.5908 43.0449L30.5913 43.4352C30.5899 44.618 30.374 45.7536 29.9813 46.8055L17.071 34.0517C18.1461 33.6368 19.3117 33.4089 20.5276 33.4089ZM26.2749 51.5036L12.4216 37.8186C12.9925 36.9453 13.7 36.1697 14.5126 35.5213L28.5432 49.3816C27.905 50.2035 27.1384 50.9208 26.2749 51.5036ZM30.5863 39.0434L24.8875 33.4137L30.5798 33.4202L30.5863 39.0434ZM43.1636 30.5909L33.4096 20.9551L33.4091 20.5584C33.4049 19.3741 33.6174 18.237 34.0084 17.1841L46.9194 29.9386C45.8368 30.3583 44.6627 30.5897 43.4385 30.5912L43.1636 30.5909ZM49.4769 28.4681L35.4457 14.607C36.084 13.7865 36.852 13.0704 37.7176 12.4889L51.5711 26.1744C50.9989 27.0454 50.2903 27.82 49.4769 28.4681Z" fill="#3B5998"/>
</svg>
