<svg width="64" height="64" viewBox="0 0 64 64" fill="none" xmlns="http://www.w3.org/2000/svg">
    <path d="M32 8C18.7842 8 8 18.786 8 32C8 45.2158 18.786 56 32 56C45.2158 56 56 45.214 56 32C56 18.7838 45.214 8 32 8ZM32 53.1875C20.3171 53.1875 10.8125 43.6829 10.8125 32C10.8125 20.3171 20.3171 10.8125 32 10.8125C43.6829 10.8125 53.1875 20.3171 53.1875 32C53.1875 43.6829 43.6829 53.1875 32 53.1875Z" fill="#17D27F"/>
    <path d="M45.6888 18.3076C38.8301 17.5937 28.0433 17.7886 23.1914 22.5881C17.4629 28.2554 17.8205 35.0581 22.9594 40.329C22.0382 42.8236 22.0107 45.5186 22.8468 48L25.5555 47.1067C25.025 45.5323 24.9588 43.8927 25.3164 42.3499C30.2713 45.8404 36.2374 45.6323 41.3619 40.5633C46.2097 35.7672 46.4123 25.1088 45.6888 18.3076ZM39.3428 38.5659C35.111 42.7523 30.4911 42.8284 26.4462 39.6582C26.8002 39.1003 27.2203 38.5751 27.7058 38.0944L28.6244 37.186L33.844 38.9072L34.7467 36.2276L30.8814 34.9529L32.6622 33.1917L37.8818 34.9128L38.7848 32.2333L34.9192 30.9586L39.3424 26.5828L37.3237 24.5858L32.9005 28.9616L31.6119 25.1375L28.9032 26.0308L30.6431 31.1943L28.8627 32.9559L27.5742 29.1322L24.8655 30.0252L26.6054 35.189L25.6871 36.0974C25.1997 36.5796 24.7588 37.1007 24.3669 37.6542C22.2111 35.1037 19.605 30.1303 25.2101 24.5858C28.4408 21.3899 35.3214 20.8139 39.8633 20.8139C41.1697 20.8139 42.2831 20.8614 43.0597 20.9081C43.2716 24.3486 43.5021 34.4513 39.3428 38.5659Z" fill="#17D27F"/>
</svg>
