<svg width="24" height="24" viewBox="0 0 24 24" fill="none" xmlns="http://www.w3.org/2000/svg">
    <path d="M8 7L8.74 5.89C8.9227 5.61617 9.17016 5.39166 9.46043 5.23641C9.75071 5.08116 10.0748 4.99995 10.404 5H13.596C13.9252 4.99995 14.2493 5.08116 14.5396 5.23641C14.8298 5.39166 15.0773 5.61617 15.26 5.89L16 7H21V18H3V7H8Z" stroke="white" stroke-width="2" stroke-linecap="square"/>
    <path d="M12 15C13.6569 15 15 13.6569 15 12C15 10.3431 13.6569 9 12 9C10.3431 9 9 10.3431 9 12C9 13.6569 10.3431 15 12 15Z" stroke="white" stroke-width="2" stroke-linecap="square"/>
</svg>
