<svg width="64" height="64" viewBox="0 0 64 64" fill="none" xmlns="http://www.w3.org/2000/svg">
    <path d="M53.3543 12.0017C53.43 12.0029 53.4936 12.0048 53.5527 12.0078L53.8118 12.0302C54.3798 12.097 54.8859 12.2899 55.329 12.759C55.7523 13.2072 55.9157 13.6879 55.9734 14.2379C55.9876 14.3737 55.9944 14.4803 55.9974 14.6409L55.9997 19.9673C55.9999 19.9782 55.9999 19.989 55.9999 19.9999L55.9962 20.0302L55.9999 48.9411C55.9999 49.1433 55.9994 49.2839 55.9966 49.3981L55.993 49.5047L55.9734 49.762C55.9157 50.312 55.7523 50.7926 55.329 51.2408C54.8859 51.7099 54.3798 51.9029 53.8118 51.9697C53.6731 51.986 53.5667 51.9936 53.4089 51.9971L11.0019 51.9999C10.761 51.9999 10.6162 51.999 10.4937 51.9939L10.2566 51.977C9.75968 51.9283 9.32351 51.7947 8.89397 51.4472C8.08638 50.7938 8.00598 50.3311 8.00024 49.1391L8.00191 14.6701C8.00271 14.6207 8.00381 14.5768 8.00534 14.5356L8.02034 14.2995C8.0625 13.8199 8.1761 13.4072 8.48374 12.9839C8.86737 12.4561 9.38857 12.1759 9.96302 12.0648C10.2272 12.0137 10.4435 12.0022 10.813 12.0002L53.3543 12.0017ZM51.9982 21.9982H11.9962L11.9999 47.9999H51.9999L51.9982 21.9982ZM39.3327 26.5087C40.7301 27.7576 42.0798 29.0144 43.3817 30.2792L44.9565 31.8375C45.1529 32.0381 45.2544 32.1511 45.3777 32.3052C45.7643 32.7884 46.0034 33.2966 46.0034 33.9608C46.0034 34.625 45.7643 35.1332 45.3777 35.6164L45.1541 35.8772C45.0706 35.9679 44.9697 36.0716 44.8263 36.216L44.6676 36.375C42.9816 38.0611 41.211 39.7594 39.3558 41.4702C38.5438 42.219 37.2785 42.1678 36.5297 41.3558C35.7809 40.5437 35.8321 39.2785 36.6441 38.5296C38.0062 37.2736 39.3208 36.0253 40.5879 34.7846L41.4179 33.9599L40.5935 33.1473C39.7525 32.3303 38.8905 31.5163 38.0075 30.7054L36.6672 29.4912C35.8436 28.7551 35.7727 27.4908 36.5087 26.6672C37.2448 25.8436 38.5091 25.7726 39.3327 26.5087ZM27.4737 26.6441C28.2225 27.4561 28.1712 28.7214 27.3592 29.4702C25.9972 30.7262 24.6826 31.9746 23.4154 33.2152L22.5854 34.0399L23.4099 34.8525C24.2508 35.6695 25.1128 36.4835 25.9959 37.2945L27.3362 38.5087C28.1597 39.2448 28.2307 40.5091 27.4946 41.3327C26.7586 42.1563 25.4942 42.2272 24.6706 41.4911C23.2732 40.2422 21.9236 38.9854 20.6217 37.7207L19.0469 36.1623C18.8504 35.9618 18.7489 35.8488 18.6257 35.6947C18.2391 35.2114 17.9999 34.7032 17.9999 34.039C17.9999 33.3749 18.2391 32.8667 18.6257 32.3834L18.8492 32.1226C18.9327 32.032 19.0336 31.9283 19.1771 31.7839L19.3357 31.6248C21.0217 29.9388 22.7924 28.2404 24.6476 26.5296C25.4596 25.7808 26.7249 25.8321 27.4737 26.6441ZM51.9999 15.9979L11.9979 15.9999L11.9962 17.9982H51.9982L51.9999 15.9979Z" fill="#00A4E1"/>
</svg>
