<svg width="64" height="64" viewBox="0 0 64 64" fill="none" xmlns="http://www.w3.org/2000/svg">
    <path d="M16.7335 14.7377C17.9844 13.4868 19.7403 13.0786 21.3747 13.4592C21.6002 12.8971 21.9397 12.3722 22.3965 11.9154C24.4016 9.91029 27.7174 10.1653 29.8211 12.269L34.494 16.9407C34.6714 16.6636 34.8813 16.4012 35.1244 16.1581C37.1295 14.1529 40.4454 14.408 42.549 16.5116L49.9736 23.9363C51.1127 25.0753 52.0344 26.3831 52.7146 27.8099C53.1899 28.807 52.7669 30.0006 51.7698 30.4759C50.7728 30.9512 49.5792 30.5282 49.1039 29.5312C48.6189 28.5138 47.9613 27.5808 47.1452 26.7647L39.7206 19.3401L39.545 19.1822C38.949 18.7022 38.2601 18.6793 37.9528 18.9865C37.6148 19.3245 37.6763 20.1243 38.3064 20.7543L38.4618 20.9287C38.569 21.0642 38.6562 21.2103 38.7234 21.3631C39.0759 21.59 39.4113 21.8593 39.7206 22.1685L47.1452 29.5931C52.6125 35.0605 52.6125 43.9248 47.1452 49.3921C41.7918 54.7455 33.1814 54.8571 27.6923 49.7267L27.3462 49.3921L12.6898 34.7357C10.6568 32.7027 10.5155 29.4532 12.497 27.4718C12.77 27.1988 13.0671 26.966 13.3818 26.773C12.0658 24.7718 12.191 22.1087 13.905 20.3946C14.3634 19.9362 14.8897 19.5915 15.453 19.3575C15.0779 17.7292 15.488 15.9832 16.7335 14.7377ZM19.5619 17.5662C19.2343 17.8938 19.2248 18.5056 19.6001 18.9986L19.7395 19.158L35.8253 35.2438C36.6064 36.0249 36.6064 37.2912 35.8253 38.0723C35.1001 38.7975 33.9564 38.8493 33.1714 38.2277L32.9969 38.0723L18.3414 23.4168C17.8176 22.893 17.0951 22.8614 16.7335 23.223C16.408 23.5484 16.401 24.1663 16.7848 24.6684L16.9272 24.831L31.5827 39.4865C32.3638 40.2675 32.3638 41.5338 31.5827 42.3149C30.8574 43.0402 29.7138 43.092 28.9287 42.4703L28.7543 42.3149L16.9325 30.4931C16.4093 29.9699 15.6871 29.9385 15.3254 30.3002C14.9998 30.6258 14.9927 31.2433 15.3759 31.7449L15.5182 31.9073L30.1746 46.5637C34.0799 50.4689 40.4115 50.4689 44.3168 46.5637C48.1192 42.7612 48.2193 36.6584 44.617 32.7348L44.3333 32.438L44.3168 32.4215L36.8922 24.9969L36.7166 24.8391C36.1205 24.359 35.4316 24.3361 35.1244 24.6434C34.7864 24.9814 34.8479 25.7811 35.4779 26.4111L35.4534 26.3866L40.068 31.0012C40.849 31.7822 40.849 33.0486 40.068 33.8296C39.3427 34.5549 38.199 34.6067 37.414 33.985L37.2396 33.8296L32.6731 29.2631L32.6495 29.2396C32.6334 29.2235 32.6174 29.2073 32.6016 29.1911L21.1537 17.7438C20.6408 17.2309 19.9259 17.2022 19.5619 17.5662ZM25.2249 14.7439C24.8869 15.0819 24.9484 15.8816 25.5784 16.5116L31.6656 22.5976C31.843 22.3204 32.0528 22.0581 32.296 21.8149C32.5396 21.5713 32.8025 21.3611 33.0803 21.1834L26.9927 15.0974L26.8171 14.9396C26.221 14.4595 25.5321 14.4366 25.2249 14.7439Z" fill="#5800E4"/>
</svg>
