<svg width="64" height="64" viewBox="0 0 64 64" fill="none" xmlns="http://www.w3.org/2000/svg">
    <path d="M12.8006 38.0003L19.3932 38.0022C19.4436 38.0031 19.4883 38.0043 19.5302 38.006L19.7717 38.0231C20.2953 38.074 20.7495 38.217 21.192 38.6042C21.6848 39.0354 21.8964 39.5498 21.9684 40.1172C21.9856 40.2521 21.9935 40.3526 21.9971 40.4986L22 53.125C22 53.3672 21.9989 53.5107 21.9919 53.6352L21.9684 53.8828C21.8964 54.4502 21.6848 54.9646 21.192 55.3958C20.7495 55.783 20.2953 55.926 19.7717 55.9769C19.6444 55.9893 19.5443 55.9951 19.3932 55.9978L12.636 55.9983L12.29 55.9826C11.841 55.9465 11.4578 55.8503 11.0503 55.581C10.5059 55.2213 10.1971 54.7016 10.0729 54.1267C10.0154 53.8606 10.0027 53.6499 10.0004 53.2995L10.0032 40.4907L10.0233 40.1884C10.0747 39.6964 10.2183 39.2561 10.5825 38.8318C10.9834 38.3648 11.4731 38.1408 12.0098 38.0516C12.2501 38.0116 12.4544 38.0021 12.8006 38.0003ZM35.3592 34.002C35.4359 34.0032 35.5007 34.0053 35.5608 34.0086L35.8262 34.033C36.4082 34.1058 36.93 34.3171 37.3698 34.8119C37.7705 35.2626 37.9208 35.7325 37.9747 36.278C37.9897 36.4303 37.996 36.5484 37.9985 36.7486V53.2514C37.9972 53.3515 37.995 53.4311 37.9913 53.5047L37.9747 53.722C37.9208 54.2675 37.7705 54.7374 37.3698 55.1881C36.93 55.6829 36.4082 55.8942 35.8262 55.967C35.6835 55.9848 35.5748 55.9931 35.4146 55.9969L28.9946 56C28.59 56 28.4546 55.9973 28.2398 55.9748C27.7281 55.9212 27.2745 55.7725 26.8416 55.3975C26.0768 54.7352 26.0057 54.2976 26.0003 53.0854L26.0039 36.5159C26.0191 35.7638 26.0931 35.5672 26.4482 35.0454C27.0774 34.1208 27.6279 34.0071 28.8129 34.0003L35.3592 34.002ZM51.2188 26.0003C51.5446 26.003 51.6934 26.0139 51.9335 26.0572C52.5982 26.1772 53.1895 26.5232 53.5783 27.1549C53.9312 27.7284 53.989 27.9175 53.9982 29.0021V52.9979C53.9905 53.9017 53.9491 54.1837 53.7313 54.5844L53.5783 54.8451C53.1895 55.4768 52.5982 55.8228 51.9335 55.9428C51.7414 55.9775 51.6077 55.9913 51.3952 55.9967L44.9946 56C44.7502 56 44.6019 55.9987 44.4715 55.9911L44.2114 55.9656C43.6682 55.8946 43.1741 55.6972 42.7466 55.2618C42.0929 54.5961 42.0148 54.1078 42.0016 52.8837L42.0017 29.0944C42.0134 28.0259 42.077 27.574 42.5705 26.9404C43.2054 26.1252 43.7665 26.0071 44.8336 26.0003H51.2188ZM18 41.998L13.998 42L14 52H18V41.998ZM34 37.998L29.998 38L30 52H34V37.998ZM50 29.998L46 30V52H50V29.998ZM53.2282 8.0005L53.5455 8.00725C53.6067 8.01017 53.6627 8.01423 53.7218 8.01986C54.2732 7.94235 54.8531 8.09422 55.3072 8.4863C55.8392 8.94576 56.0701 9.62434 55.9816 10.2725L55.9927 10.4545L56 11V18C56 19.1046 55.1046 20 54 20C52.9743 20 52.129 19.2279 52.0135 18.2332L52 18L52.0003 15.038C40.9458 25.807 25.9769 32 10 32C8.89543 32 8 31.1046 8 30C8 28.8954 8.89543 28 10 28C25.0103 28 39.0551 22.1542 49.3862 11.9996L46.0013 12C44.9756 12 44.1303 11.2279 44.0148 10.2332L44.0013 10C44.0013 8.97433 44.7734 8.12899 45.7681 8.01346L46.0013 8L53.2282 8.0005Z" fill="#EA1076"/>
</svg>
