<svg width="36" height="36" viewBox="0 0 36 36" fill="none" xmlns="http://www.w3.org/2000/svg">
    <g clip-path="url(#clip0)">
        <path d="M7.97836 21.7552L6.72525 26.4332L2.14516 26.5301C0.776391 23.9914 0 21.0867 0 18C0 15.0151 0.725906 12.2004 2.01262 9.72192H2.01361L6.09117 10.4695L7.87739 14.5226C7.50354 15.6125 7.29977 16.7825 7.29977 18C7.29991 19.3213 7.53926 20.5872 7.97836 21.7552Z" fill="#FBBB00"/>
        <path d="M35.6855 14.6373C35.8922 15.7262 36 16.8507 36 18C36 19.2886 35.8645 20.5457 35.6064 21.7582C34.7302 25.8844 32.4406 29.4873 29.2688 32.037L29.2679 32.036L24.132 31.774L23.4051 27.2363C25.5097 26.0021 27.1544 24.0705 28.0208 21.7582H18.3957V14.6373H28.1612H35.6855Z" fill="#518EF8"/>
        <path d="M29.2678 32.0361L29.2688 32.0371C26.1841 34.5165 22.2656 36.0001 18 36.0001C11.1452 36.0001 5.18541 32.1687 2.14517 26.5303L7.97837 21.7554C9.49845 25.8123 13.412 28.7002 18 28.7002C19.9721 28.7002 21.8196 28.1671 23.4049 27.2364L29.2678 32.0361Z" fill="#28B446"/>
        <path d="M29.4894 4.14394L23.6582 8.91788C22.0174 7.8923 20.0779 7.29984 18 7.29984C13.3082 7.29984 9.32144 10.3203 7.8775 14.5226L2.01365 9.72197H2.01266C5.0084 3.94615 11.0433 0 18 0C22.3675 0 26.372 1.55573 29.4894 4.14394Z" fill="#F14336"/>
    </g>
    <defs>
        <clipPath id="clip0">
            <rect width="36" height="36" fill="white"/>
        </clipPath>
    </defs>
</svg>
