<svg width="64" height="64" viewBox="0 0 64 64" fill="none" xmlns="http://www.w3.org/2000/svg">
    <path d="M18 56C16.9743 56 16.129 55.2279 16.0135 54.2332L16 54L16.0006 31.9451C11.5004 31.448 8 27.6328 8 23C8 18.1715 11.8025 14.231 16.5763 14.0098L17 14H47C51.9706 14 56 18.0294 56 23C56 27.6321 52.5007 31.4468 48.0014 31.9449L48 54C48 55.0257 47.2279 55.871 46.2332 55.9865L46 56H18ZM39.5162 28.001H24.4838C23.4139 29.5988 21.846 30.8349 20.0022 31.4871L20 52H26V34C26 32.8954 26.8954 32 28 32C29.0257 32 29.871 32.7721 29.9865 33.7668L30 34V52H34V34C34 32.8954 34.8954 32 36 32C37.0257 32 37.871 32.7721 37.9865 33.7668L38 34V52H44L43.9998 31.4878C42.1551 30.8358 40.5864 29.5994 39.5162 28.001ZM47 18H17C14.2386 18 12 20.2386 12 23C12 25.7614 14.2386 28 17 28C19.651 28 21.8201 25.9369 21.9894 23.3288L22 23C22 21.8954 22.8954 21 24 21C25.1046 21 26 21.8954 26 23C26 23.3385 25.9813 23.6726 25.9449 24.0014H38.0551C38.0187 23.6726 38 23.3385 38 23C38 21.8954 38.8954 21 40 21C41.1046 21 42 21.8954 42 23C42 25.7614 44.2386 28 47 28C49.7614 28 52 25.7614 52 23C52 20.349 49.9369 18.1799 47.3288 18.0106L47 18ZM48 8C49.1046 8 50 8.89543 50 10C50 11.0257 49.2279 11.871 48.2332 11.9865L48 12H16C14.8954 12 14 11.1046 14 10C14 8.97433 14.7721 8.12899 15.7668 8.01346L16 8H48Z" fill="#A139E3"/>
</svg>
