<svg width="1144" height="424" viewBox="0 0 1144 424" fill="none" xmlns="http://www.w3.org/2000/svg">
    <path d="M509.425 421.81C475.961 421.81 442.167 421.81 408.868 421.81C434.419 422.653 465.081 422.99 500.029 422.147C502.996 422.147 506.293 421.978 509.425 421.81Z" fill="url(#paint0_radial)"/>
    <path d="M494.589 422.989H477.939V218.09H494.589V422.989Z" fill="#DFDEFF"/>
    <path d="M313.915 366.878C312.431 368.731 310.453 371.427 308.97 374.966C307.486 378.336 306.662 381.537 306.167 383.896C302.541 387.266 297.101 387.603 293.144 384.907C288.693 381.874 287.539 375.471 290.507 370.585C293.309 366.035 296.111 361.823 298.914 357.273C304.024 360.643 308.97 363.845 313.915 366.878Z" fill="#DDCEFF"/>
    <path d="M274.351 392.659C289.353 401.589 304.519 410.688 319.685 419.619C326.279 420.63 332.873 421.304 339.302 422.315C340.291 421.304 342.928 418.271 342.269 414.227C341.28 408.835 334.356 403.443 325.454 403.106C323.971 401.252 321.993 398.388 319.85 394.681C314.739 386.087 312.926 380.358 310.618 380.189C309.794 380.189 308.97 380.695 307.981 383.222C306.332 383.56 303.365 384.234 299.903 383.054C294.298 381.369 289.517 376.145 287.869 369.911C285.561 372.944 282.924 376.482 280.616 380.526C278.967 383.391 277.648 386.087 276.659 388.615C276 389.963 275.176 391.311 274.351 392.659Z" fill="#323275"/>
    <path d="M273.362 393.838C288.363 403.611 303.2 413.216 318.201 422.821C326.279 422.989 334.356 423.157 342.434 423.326C342.434 421.809 342.434 420.293 342.434 418.776C334.851 418.439 327.268 417.934 319.52 417.597C305.343 408.329 291.001 398.893 276.659 389.457C275.505 390.974 274.351 392.322 273.362 393.838Z" fill="#232375"/>
    <path d="M389.91 375.303C389.58 378.168 389.251 382.043 389.58 386.424C389.91 390.974 390.899 394.344 391.558 397.208C390.075 402.263 385.789 405.802 381.008 406.139C375.238 406.476 369.634 402.095 368.48 395.523C369.469 393.164 370.128 390.468 370.788 387.604C371.941 382.717 372.271 378.336 372.271 374.629C378.206 374.797 384.14 374.966 389.91 375.303Z" fill="#DDCEFF"/>
    <path d="M375.898 278.919C354.468 310.766 333.202 342.445 311.772 374.123C304.684 370.922 297.595 367.552 290.507 364.182C294.463 354.24 300.068 340.76 307.321 324.921C311.772 315.653 315.399 307.733 320.179 298.466C325.784 287.513 334.521 272.011 348.203 254.15C357.435 262.406 366.666 270.663 375.898 278.919Z" fill="#3F3F96"/>
    <path d="M356.611 156.924C361.062 149.341 359.248 145.465 358.259 143.949C358.094 143.78 358.094 143.612 357.929 143.612C357.6 143.106 357.27 142.601 357.105 142.601C356.611 142.095 356.446 137.883 355.622 135.861C354.468 133.165 350.346 131.311 349.852 131.311C349.028 130.974 347.874 130.637 347.544 129.626C347.214 128.615 348.203 128.11 348.039 127.267C347.709 125.751 343.093 125.751 343.093 125.751C332.543 126.088 323.641 114.967 313.585 118.505C308.969 120.022 305.508 124.234 301.881 128.615C299.573 131.48 297.925 134.007 296.936 136.029C299.243 138.051 302.705 140.916 307.321 143.612C309.464 144.96 316.223 148.33 333.367 152.88C341.774 155.07 349.522 156.081 356.611 156.924Z" fill="#2D2D66"/>
    <path d="M242.309 196.117H297.699C297.699 191.062 297.699 185.669 297.699 180.783C298.028 179.435 298.028 178.255 298.358 177.076C298.688 175.559 298.852 174.043 299.182 172.526C298.688 172.189 298.193 171.852 297.699 171.515C297.863 170.504 297.863 169.662 298.028 168.482C298.358 165.449 298.358 162.585 298.688 159.383C298.028 159.215 297.534 159.046 297.039 159.046C297.369 157.53 297.863 156.013 298.193 154.497V148.093V141.859H242.804L242.309 196.117Z" fill="#EAEAED"/>
    <path d="M243.298 196.454H172.249V190.388H243.298V196.454Z" fill="#C9C8DA"/>
    <path d="M245.441 190.388H174.391V184.321H245.441V190.388Z" fill="#C9C8DA"/>
    <path d="M243.959 184.49H172.909V178.424H243.959V184.49Z" fill="#C9C8DA"/>
    <path d="M248.079 178.424H177.03V172.358H248.079V178.424Z" fill="#C9C8DA"/>
    <path d="M246.431 172.358H175.216V166.292H246.431V172.358Z" fill="#C9C8DA"/>
    <path d="M247.255 166.292H176.37V160.226H247.255V166.292Z" fill="#C9C8DA"/>
    <path d="M246.431 160.731H175.381V154.665H246.431V160.731Z" fill="#C9C8DA"/>
    <path d="M245.276 154.328H174.391V148.262H245.276V154.328Z" fill="#C9C8DA"/>
    <path d="M247.09 148.599H176.041V142.533H247.09V148.599Z" fill="#C9C8DA"/>
    <path d="M245.441 148.43H174.391V152.643L245.441 148.43Z" fill="#B1AFCB"/>
    <path d="M296.545 158.878L247.42 160.226V166.292L296.545 158.878Z" fill="#C9C8DA"/>
    <path d="M296.874 185.164L264.894 185.332L267.202 188.366L296.874 185.164Z" fill="#C9C8DA"/>
    <path d="M228.957 179.098L183.624 178.592C201.427 179.603 219.396 180.783 237.199 181.794C234.562 180.783 231.594 179.94 228.957 179.098Z" fill="#B1AFCB"/>
    <path d="M238.471 143.865H293.86C293.86 138.81 293.86 133.418 293.86 128.532C294.19 127.184 294.19 126.004 294.52 124.825C294.849 123.308 295.014 121.792 295.344 120.275C294.849 119.938 294.355 119.601 293.86 119.264C294.025 118.253 294.025 117.41 294.19 116.231C294.52 113.198 294.52 110.333 294.849 107.132C294.19 106.963 293.696 106.795 293.201 106.795C293.531 105.278 294.025 103.762 294.355 102.245V96.0107V89.7761H238.966L238.471 143.865Z" fill="#EAEAED"/>
    <path d="M239.461 144.371H168.411V138.305H239.461V144.371Z" fill="#C9C8DA"/>
    <path d="M241.438 138.473H170.553V132.407H241.438V138.473Z" fill="#C9C8DA"/>
    <path d="M240.121 132.407H168.906V126.341H240.121V132.407Z" fill="#C9C8DA"/>
    <path d="M244.076 126.341H173.027V120.275H244.076V126.341Z" fill="#C9C8DA"/>
    <path d="M242.593 120.275H171.543V114.209H242.593V120.275Z" fill="#C9C8DA"/>
    <path d="M243.417 114.377H172.367V108.143H243.417V114.377Z" fill="#C9C8DA"/>
    <path d="M242.757 108.648H171.543V102.582H242.757V108.648Z" fill="#C9C8DA"/>
    <path d="M241.438 102.414H170.388V96.3476H241.438V102.414Z" fill="#C9C8DA"/>
    <path d="M243.417 96.5168H172.202V90.4507H243.417V96.5168Z" fill="#C9C8DA"/>
    <path d="M241.603 96.1792H170.553L170.388 100.56L241.603 96.1792Z" fill="#B1AFCB"/>
    <path d="M294.355 107.132C294.19 107.975 294.025 108.649 293.86 109.492C281.497 108.817 269.463 108.143 257.099 107.637C269.628 107.469 282.156 107.3 294.355 107.132Z" fill="#C9C8DA"/>
    <path d="M293.036 133.081L261.22 133.418L263.199 136.283L293.036 133.081Z" fill="#C9C8DA"/>
    <path d="M225.119 127.015L179.785 126.51C197.589 127.521 215.557 128.7 233.361 129.711C230.724 128.7 227.921 128.026 225.119 127.015Z" fill="#B1AFCB"/>
    <path d="M75.5005 418.977H134.846C134.846 413.922 134.846 408.53 134.846 403.644C135.176 402.296 135.176 401.116 135.505 399.937C135.835 398.42 136 396.903 136.33 395.387C135.835 395.05 135.176 394.713 134.681 394.376C134.846 393.365 134.846 392.522 135.011 391.343C135.34 388.31 135.505 385.445 135.67 382.244C135.011 382.075 134.351 381.907 133.857 381.907C134.186 380.39 134.681 378.874 135.176 377.357V371.123V364.888H75.8302V418.977H75.5005Z" fill="#EFEFF1"/>
    <path d="M76.4896 419.483H0V413.417H76.4896V419.483Z" fill="#D4D4DB"/>
    <path d="M78.6318 413.585H2.14221V407.351H78.6318V413.585Z" fill="#D4D4DB"/>
    <path d="M77.15 407.519H0.6604V401.285H77.15V407.519Z" fill="#D4D4DB"/>
    <path d="M81.435 401.285H4.94543V395.219H81.435V401.285Z" fill="#D4D4DB"/>
    <path d="M79.7866 395.387H3.297V389.321H79.7866V395.387Z" fill="#D4D4DB"/>
    <path d="M80.7757 389.489H4.28613V383.423H80.7757V389.489Z" fill="#D4D4DB"/>
    <path d="M79.9515 383.592H3.46191V377.526H79.9515V383.592Z" fill="#D4D4DB"/>
    <path d="M78.6318 377.357H1.97742V371.291H78.6318V377.357Z" fill="#D4D4DB"/>
    <path d="M80.6109 371.629H3.95642V365.563H80.6109V371.629Z" fill="#D4D4DB"/>
    <path d="M78.7967 371.291H2.14228L1.97742 375.672L78.7967 371.291Z" fill="#CAC9D3"/>
    <path d="M133.527 382.075L80.7758 383.255V389.489L133.527 382.075Z" fill="#D4D4DB"/>
    <path d="M133.857 408.193L99.7332 408.53L102.041 411.395L133.857 408.193Z" fill="#D4D4DB"/>
    <path d="M60.8291 401.958L11.8691 401.453C31.1564 402.464 50.2788 403.644 69.566 404.655C66.7636 403.812 63.9612 403.138 60.8291 401.958Z" fill="#CAC9D3"/>
    <path d="M83.584 369.794H138.973C138.973 364.738 138.973 359.346 138.973 354.46C139.303 353.112 139.303 351.932 139.632 350.753C139.962 349.236 140.127 347.72 140.457 346.203C139.962 345.866 139.467 345.529 138.973 345.192C139.138 344.181 139.138 343.339 139.303 342.159C139.632 339.126 139.632 336.262 139.962 333.06C139.303 332.891 138.808 332.723 138.314 332.723C138.643 331.206 139.138 329.69 139.467 328.173V321.77V315.367H84.0785V369.794H83.584Z" fill="#EFEFF1"/>
    <path d="M84.7378 369.962H13.5234V363.896H84.7378V369.962Z" fill="#D4D4DB"/>
    <path d="M86.7151 364.064H15.6655V357.998H86.7151V364.064Z" fill="#D4D4DB"/>
    <path d="M85.0685 357.998H14.1838V351.932H85.0685V357.998Z" fill="#D4D4DB"/>
    <path d="M89.1887 351.764H18.304V345.698H89.1887V351.764Z" fill="#D4D4DB"/>
    <path d="M87.7051 345.866H16.6555V339.8H87.7051V345.866Z" fill="#D4D4DB"/>
    <path d="M88.6942 339.969H17.6447V333.903H88.6942V339.969Z" fill="#D4D4DB"/>
    <path d="M87.87 334.071H16.8204V328.005H87.87V334.071Z" fill="#D4D4DB"/>
    <path d="M86.7151 328.005H15.6655V321.939H86.7151V328.005Z" fill="#D4D4DB"/>
    <path d="M88.5293 322.108H17.4797V316.042H88.5293V322.108Z" fill="#D4D4DB"/>
    <path d="M46.3274 322.781C36.1068 322.613 25.7214 322.276 15.5009 321.939V326.32C25.7214 324.972 36.2717 323.961 46.3274 322.781Z" fill="#CAC9D3"/>
    <path d="M137.984 332.723L88.6943 334.071C88.5294 334.745 88.3646 335.419 88.1997 336.093C104.685 334.914 121.169 333.565 137.984 332.723Z" fill="#D4D4DB"/>
    <path d="M127.269 353.954C113.092 353.617 98.75 353.112 84.4082 352.775C84.4082 354.123 84.4082 355.302 84.4082 356.65C98.9148 355.808 113.092 354.797 127.269 353.954Z" fill="#D4D4DB"/>
    <path d="M43.5258 343.002C53.7463 343.002 63.8021 343.002 74.0227 343.002C66.2748 343.844 58.3621 344.687 50.6142 345.362C48.3064 344.687 45.8336 343.676 43.5258 343.002Z" fill="#CAC9D3"/>
    <path d="M74.9033 316.008H130.292C130.292 310.953 130.292 305.561 130.292 300.675C130.622 299.327 130.622 298.147 130.952 296.968C131.281 295.451 131.446 293.935 131.776 292.418C131.281 292.081 130.787 291.744 130.292 291.407C130.457 290.396 130.457 289.554 130.622 288.374C130.952 285.341 130.952 282.477 131.281 279.275C130.622 279.106 130.127 278.938 129.633 278.938C129.963 277.421 130.457 275.905 130.787 274.388V268.154V261.919H75.3979L74.9033 316.008Z" fill="#EFEFF1"/>
    <path d="M75.8924 316.346H4.84277V310.279H75.8924V316.346Z" fill="#D4D4DB"/>
    <path d="M77.8698 310.448H6.82019V304.382H77.8698V310.448Z" fill="#D4D4DB"/>
    <path d="M76.3876 304.55H5.33801V298.484H76.3876V304.55Z" fill="#D4D4DB"/>
    <path d="M80.5081 298.316H9.4585V292.25H80.5081V298.316Z" fill="#D4D4DB"/>
    <path d="M78.8596 292.25H7.97485V286.184H78.8596V292.25Z" fill="#D4D4DB"/>
    <path d="M80.0136 286.352H8.96399V280.286H80.0136V286.352Z" fill="#D4D4DB"/>
    <path d="M79.0244 280.623H7.97485V274.557H79.0244V280.623Z" fill="#D4D4DB"/>
    <path d="M78.0346 274.388H6.98511V268.322H78.0346V274.388Z" fill="#D4D4DB"/>
    <path d="M79.6838 268.491H8.63428V262.425H79.6838V268.491Z" fill="#D4D4DB"/>
    <path d="M58.2536 274.557H8.30457V278.77L58.2536 274.557Z" fill="#CAC9D3"/>
    <path d="M128.973 275.063C112.489 274.894 95.839 274.726 79.1893 274.388C79.519 275.4 79.6839 276.074 79.8487 276.917C96.1687 276.411 112.324 275.568 128.973 275.063Z" fill="#D4D4DB"/>
    <path d="M129.468 305.056C112.654 304.887 95.6741 304.719 78.8596 304.719C79.0245 305.73 79.0245 306.572 79.1893 307.583C95.839 306.741 112.489 305.898 129.468 305.056Z" fill="#D4D4DB"/>
    <path d="M61.5505 309.1L16.2173 308.426C25.6136 309.269 35.01 309.943 44.4063 310.617C50.0112 310.28 55.7808 309.606 61.5505 309.1Z" fill="#CAC9D3"/>
    <path d="M53.473 286.858L8.13977 286.352C8.13977 287.195 8.13977 287.869 8.13977 288.543C23.3058 287.869 38.4718 287.363 53.473 286.858Z" fill="#CAC9D3"/>
    <path d="M84.7534 267.499H140.142C140.142 262.444 140.142 257.052 140.142 252.165C140.472 250.817 140.472 249.637 140.802 248.458C141.131 246.941 141.296 245.425 141.626 243.908C141.131 243.571 140.637 243.234 140.142 242.897C140.307 241.886 140.307 241.044 140.472 239.864C140.802 236.831 140.802 233.967 141.131 230.765C140.472 230.597 139.978 230.428 139.483 230.428C139.813 228.912 140.307 227.395 140.637 225.879V219.476V213.241H85.248V267.499H84.7534Z" fill="#EFEFF1"/>
    <path d="M85.5776 267.667H14.5281V261.601H85.5776V267.667Z" fill="#D4D4DB"/>
    <path d="M87.7199 261.77H16.5055V255.704H87.7199V261.77Z" fill="#D4D4DB"/>
    <path d="M86.238 255.872H15.1885V249.806H86.238V255.872Z" fill="#D4D4DB"/>
    <path d="M90.3582 249.637H19.1438V243.571H90.3582V249.637Z" fill="#D4D4DB"/>
    <path d="M88.7097 243.571H17.6602V237.505H88.7097V243.571Z" fill="#D4D4DB"/>
    <path d="M89.6989 237.674H18.6493V231.608H89.6989V237.674Z" fill="#D4D4DB"/>
    <path d="M88.8746 231.945H17.8251V225.879H88.8746V231.945Z" fill="#D4D4DB"/>
    <path d="M87.7199 225.71H16.5055V219.644H87.7199V225.71Z" fill="#D4D4DB"/>
    <path d="M89.534 219.813H18.4844V213.747H89.534V219.813Z" fill="#D4D4DB"/>
    <path d="M88.3801 238.179H17.3306V242.392L88.3801 238.179Z" fill="#CAC9D3"/>
    <path d="M138.659 230.26L89.6989 231.608V237.674L138.659 230.26Z" fill="#D4D4DB"/>
    <path d="M139.153 256.546L107.338 256.715L109.316 259.748L139.153 256.546Z" fill="#D4D4DB"/>
    <path d="M71.4007 250.48L25.9026 249.806C43.7062 250.817 61.6746 251.997 79.4783 253.008C76.6758 252.165 74.0383 251.154 71.4007 250.48Z" fill="#CAC9D3"/>
    <path d="M428.891 192.881H484.279C484.279 187.826 484.279 182.433 484.279 177.547C484.609 176.199 484.609 175.019 484.939 173.84C485.269 172.323 485.433 170.807 485.763 169.29C485.269 168.953 484.774 168.616 484.279 168.279C484.444 167.268 484.444 166.426 484.609 165.246C484.939 162.213 484.939 159.349 485.269 156.147C484.609 155.979 484.115 155.81 483.62 155.81C483.95 154.294 484.444 152.777 484.774 151.26V144.857V138.791H429.385V192.881H428.891Z" fill="#EAEAED"/>
    <path d="M429.88 193.555H358.83V187.32H429.88V193.555Z" fill="#C9C8DA"/>
    <path d="M431.857 187.489H360.643V181.422H431.857V187.489Z" fill="#C9C8DA"/>
    <path d="M430.54 181.422H359.49V175.356H430.54V181.422Z" fill="#C9C8DA"/>
    <path d="M434.495 175.356H363.281V169.29H434.495V175.356Z" fill="#C9C8DA"/>
    <path d="M432.847 169.29H361.962V163.224H432.847V169.29Z" fill="#C9C8DA"/>
    <path d="M434.001 163.393H362.951V157.327H434.001V163.393Z" fill="#C9C8DA"/>
    <path d="M433.012 157.664H361.962V151.597H433.012V157.664Z" fill="#C9C8DA"/>
    <path d="M432.022 151.429H360.807V145.363H432.022V151.429Z" fill="#C9C8DA"/>
    <path d="M433.671 145.532H362.621V139.466H433.671V145.532Z" fill="#C9C8DA"/>
    <path d="M483.62 167.1C473.235 167.437 462.849 167.774 452.464 168.111C462.849 168.448 473.235 168.617 483.62 168.954C483.62 168.28 483.62 167.774 483.62 167.1Z" fill="#C9C8DA"/>
    <path d="M483.62 154.968C466.805 155.136 449.496 155.305 432.682 155.305C432.682 156.316 432.682 156.99 432.682 158.001C449.826 156.99 466.641 155.979 483.62 154.968Z" fill="#C9C8DA"/>
    <path d="M483.29 182.096C466.146 181.759 448.837 181.591 431.693 181.254C431.693 182.265 431.693 183.107 431.693 184.287C449.002 183.444 466.146 182.939 483.29 182.096Z" fill="#C9C8DA"/>
    <path d="M430.539 175.356C410.427 175.356 390.151 175.525 370.04 175.525C390.316 176.873 410.592 177.884 430.869 179.232C430.704 177.884 430.704 176.704 430.539 175.356Z" fill="#B1AFCB"/>
    <path d="M420.154 159.18C400.866 159.349 381.909 159.517 362.622 159.517C362.622 160.865 362.622 161.876 362.786 163.224L420.154 159.18Z" fill="#B1AFCB"/>
    <path d="M273.198 242.691C285.231 242.017 302.87 241.175 324.465 241.343C385.954 241.849 399.801 249.095 404.581 254.487C405.406 255.329 405.735 256.003 406.065 256.172C416.451 270.494 411.01 290.715 408.867 300.488C403.922 321.214 398.977 348.511 392.877 383.223C384.8 383.56 376.557 383.56 368.48 383.897C368.315 370.079 368.48 355.925 368.974 341.097C369.799 320.371 371.117 300.319 373.095 281.616C368.315 283.132 361.886 284.48 353.973 285.154C353.973 285.154 351.83 285.323 349.522 285.491C324.3 286.671 302.211 283.469 284.407 278.919C280.286 266.787 276.659 254.655 273.198 242.691Z" fill="#282886"/>
    <path d="M526.404 193.32C526.404 197.027 526.075 208.822 520.799 217.416C517.502 222.64 513.381 225.841 510.744 227.863C441.343 227.695 371.612 224.156 302.376 223.988C301.551 222.64 299.573 219.101 298.254 211.519C296.771 203.767 297.1 196.185 297.265 193.489C373.425 193.489 449.915 193.32 526.404 193.32Z" fill="url(#paint1_linear)"/>
    <path d="M308.31 244.208C306.662 239.153 302.705 224.325 310.453 208.991C311.442 207.306 315.069 200.06 323.476 192.983C333.697 184.558 344.742 181.188 350.676 179.84C351.006 175.796 351.665 162.821 341.774 151.195C335.51 143.78 327.927 140.41 324.63 138.894C324.63 138.894 313.256 133.839 299.738 134.007C271.549 134.176 245.173 160.968 232.81 181.188C219.787 202.588 218.138 223.314 218.633 236.794C225.721 254.824 239.074 266.619 251.273 265.945C256.548 265.608 264.79 262.743 270.725 257.688C276.989 252.633 305.837 246.735 308.31 244.208Z" fill="#8989CB"/>
    <path d="M478.269 422.989H465.246V227.863H478.269V422.989Z" fill="#CAC9FF"/>
    <path d="M348.203 419.956L349.192 419.619C352.16 418.945 353.808 415.743 353.314 412.373L327.268 290.041C327.103 289.535 326.608 289.03 326.114 289.198L315.563 291.557L341.774 415.238C342.269 418.777 345.236 420.799 348.203 419.956Z" fill="#F9F8FF"/>
    <path d="M348.203 419.619L349.192 419.282C352.16 418.608 353.808 415.406 353.314 412.205L327.762 292.063C327.597 291.557 327.103 291.052 326.608 291.22L316.058 293.579L341.774 414.901C342.269 418.44 345.236 420.293 348.203 419.619Z" fill="#D3D2F0"/>
    <path d="M270.725 420.293L271.714 420.124C274.681 419.787 276.824 417.091 276.494 413.721L265.614 292.737C265.614 292.231 265.12 291.726 264.625 291.726L253.91 292.737L264.79 414.901C265.12 418.271 267.757 420.63 270.725 420.293Z" fill="#F9F8FF"/>
    <path d="M270.56 419.787L271.549 419.619C274.516 419.282 276.495 416.417 276.33 413.047L265.12 288.693C265.12 288.187 264.625 287.682 264.131 287.682L253.416 288.693L264.79 414.058C265.12 417.765 267.593 420.293 270.56 419.787Z" fill="#D3D2F0"/>
    <path d="M190.938 417.091L191.927 417.428C194.895 418.102 197.697 415.912 198.356 412.879L222.095 292.231C222.259 291.726 221.765 291.052 221.27 291.052L210.72 288.693L186.652 410.183C186.158 413.384 188.136 416.417 190.938 417.091Z" fill="#D3D2F0"/>
    <path d="M365.677 424C389.91 423.494 414.308 422.989 438.54 422.315C439.364 419.45 439.859 415.743 437.716 412.71C435.243 409.003 430.298 408.835 425.682 407.824C406.889 403.443 397.823 390.805 393.866 393.838C393.207 394.344 392.383 395.523 392.712 398.388C391.229 399.567 388.756 401.421 385.129 402.095C379.03 403.106 372.601 400.241 368.48 394.681C367.491 398.893 366.831 403.443 366.337 408.666C366.007 412.373 366.007 415.743 366.172 418.776C366.007 420.63 365.842 422.483 365.677 424Z" fill="#323275"/>
    <path d="M392.383 171.752C381.503 166.697 370.128 161.81 359.248 156.755C355.951 169.224 352.819 181.525 349.522 193.994L392.877 193.489C394.031 193.32 400.131 192.478 402.438 188.939C405.076 184.053 401.779 175.964 392.383 171.752Z" fill="#E3D8FF"/>
    <path d="M378.865 163.664C362.215 157.092 345.401 150.352 328.916 143.781C327.268 160.462 325.619 176.807 323.971 193.32C340.456 193.657 357.105 193.994 373.59 194.331C375.568 190.793 378.041 185.569 379.195 178.661C380.184 172.426 379.689 167.371 378.865 163.664Z" fill="#8989CB"/>
    <path d="M365.513 421.81H438.87V418.103C414.637 417.26 390.734 416.586 366.337 415.912C366.172 417.766 366.007 419.619 365.513 421.81Z" fill="#232375"/>
    <path d="M229.317 80.2154V78.1934C229.317 74.3178 226.185 70.9478 222.229 70.9478H178.05V87.2925H222.229C226.185 87.2925 229.317 84.2595 229.317 80.2154Z" fill="#F5F5F7"/>
    <path d="M250.583 68.2508H220.745H206.239H176.401C175.412 68.2508 174.753 68.9248 174.753 69.7673V71.2838H218.932C222.888 71.2838 226.02 74.3169 226.02 78.3609V80.2145C226.02 84.09 222.888 87.2916 218.932 87.2916H174.918V88.9766C174.918 89.9876 175.742 90.4931 176.566 90.4931H206.404H220.91H250.748C256.353 90.4931 260.803 85.9436 260.803 80.5515V77.8554C260.639 72.8004 256.188 68.2508 250.583 68.2508Z" fill="#BFBEFF"/>
    <path d="M256.517 90.4941H223.877C228.328 88.6406 231.131 84.5965 231.46 79.8784C231.79 75.3289 229.647 70.6108 225.526 68.0833C235.911 68.0833 246.132 68.0833 256.352 68.0833C262.617 68.0833 267.727 73.1383 267.727 79.2044C267.892 85.6075 262.782 90.4941 256.517 90.4941Z" fill="#B2B2FF"/>
    <path d="M467.259 136.953H379.395V125.158H467.259V136.953Z" fill="#E6E6FF"/>
    <path d="M469.567 125.832H378.241V122.799H469.567V125.832Z" fill="#C0C0FF"/>
    <path d="M461.985 122.799H368.68V110.161H461.985V122.799Z" fill="#D0CFFF"/>
    <path d="M470.721 139.144H384.176V136.953H470.721V139.144Z" fill="#C0C0FF"/>
    <path d="M385.659 139.312H378.241V122.967H385.659V139.312Z" fill="#BDBCFF"/>
    <path d="M387.307 139.312H385V124.147H387.307V139.312Z" fill="#C0C0FF"/>
    <path d="M477.48 108.139H386.648V96.5123H477.48V108.139Z" fill="#ECECFF"/>
    <path d="M479.788 97.5233H386.319V94.1533H479.788V97.5233Z" fill="#A5A4FF"/>
    <path d="M480.117 110.667H386.648V108.139H480.117V110.667Z" fill="#A5A4FF"/>
    <path d="M388.132 110.667H380.219V94.1533H388.132V110.667Z" fill="#A2A1FF"/>
    <path d="M390.109 110.667H387.638V94.1533H390.109V110.667Z" fill="#A5A4FF"/>
    <path d="M465.611 91.7951H374.779V80.1685H465.611V91.7951Z" fill="#E6E6FF"/>
    <path d="M468.083 81.1786H374.45V77.8085H468.083V81.1786Z" fill="#B5B4FF"/>
    <path d="M468.248 94.4913H374.779V91.7943H468.248V94.4913Z" fill="#B5B4FF"/>
    <path d="M376.263 94.4899H368.35V77.9766H376.263V94.4899Z" fill="#AEADFF"/>
    <path d="M378.24 94.4904H375.769V77.9772H378.24V94.4904Z" fill="#B5B4FF"/>
    <path d="M450.61 122.967H447.148V109.992H450.61V122.967Z" fill="#A2A1FF"/>
    <path d="M444.016 123.136H440.719V110.33H444.016V123.136Z" fill="#A2A1FF"/>
    <path d="M386.319 122.799H382.692V109.992H386.319V122.799Z" fill="#A2A1FF"/>
    <path d="M393.572 122.799H390.11V109.992H393.572V122.799Z" fill="#A2A1FF"/>
    <path d="M360.897 172.426C359.083 175.459 357.929 180.851 357.6 183.21C357.435 183.884 357.27 186.075 355.951 188.265C355.622 188.602 355.457 189.108 355.457 189.108C353.808 191.298 346.72 192.141 338.313 188.771C331.224 186.243 328.751 182.199 326.114 183.716C323.641 185.064 323.641 189.108 321.993 189.108C320.509 189.108 320.509 185.401 318.201 184.053C316.223 182.705 313.585 183.379 311.277 184.39C310.288 185.232 309.299 186.58 309.134 188.602C308.805 191.804 309.299 199.386 301.881 201.408C299.244 203.43 295.782 206.632 293.968 211.518C290.507 220.618 295.122 228.032 290.671 232.244C287.869 235.109 284.902 233.255 280.945 235.783C275.835 239.321 274.681 247.41 274.681 254.318C286.056 251.454 297.43 248.589 308.97 245.724C307.156 241.343 304.684 234.94 305.343 226.852C305.673 221.797 306.991 217.585 307.816 215.394C309.464 210.507 311.442 206.969 312.267 205.789C315.564 200.566 319.355 196.522 322.817 193.826C329.081 194.163 335.675 194.331 342.269 194.5C349.852 194.668 357.27 194.5 364.194 194.163C364.359 193.152 364.523 192.141 364.688 190.456C365.677 186.243 366.996 183.21 367.326 182.536C368.645 179.84 369.469 175.29 368.15 167.202C364.029 168.55 362.051 170.741 360.897 172.426Z" fill="#6666B3"/>
    <path d="M214.017 418.608H126.318V406.813H214.017V418.608Z" fill="#F1EFFF"/>
    <path d="M216.49 407.318H125.329V404.285H216.49V407.318Z" fill="#BFBEFF"/>
    <path d="M217.479 420.799H130.933V418.608H217.479V420.799Z" fill="#BFBEFF"/>
    <path d="M132.582 420.798H125.164V404.622H132.582V420.798Z" fill="#B2B2FF"/>
    <path d="M160.276 172.426C170.497 190.793 173.629 205.958 174.618 216.405C176.102 230.054 173.959 235.951 177.421 253.981C181.377 275.044 186.982 282.121 192.257 286.334C198.521 291.389 205.61 293.579 210.226 294.253C256.548 294.759 302.705 295.264 349.357 295.77C350.017 295.433 351.83 294.759 352.984 292.905C354.303 290.546 353.808 287.85 351.83 285.828C350.347 284.312 348.203 284.143 347.379 283.975C315.399 288.187 299.244 281.447 290.507 274.37C268.911 257.183 279.297 228.537 251.767 188.939C245.998 180.683 238.415 171.752 226.051 167.371C223.578 166.36 223.084 166.528 195.884 165.012C176.432 163.832 166.706 163.327 162.42 168.55C160.936 169.73 160.441 171.246 160.276 172.426Z" fill="#9E9BFF"/>
    <path d="M174.289 207.811C187.312 201.071 195.884 201.24 201.818 203.093C213.358 206.8 214.841 217.416 227.205 223.145C237.096 227.695 248.305 226.515 257.372 224.156C257.042 220.618 254.735 199.555 234.458 185.906C222.424 177.986 209.731 176.301 203.961 175.964L163.738 176.301L174.289 207.811Z" fill="url(#paint2_radial)"/>
    <path d="M134.394 420.798H132.087V405.802H134.394V420.798Z" fill="#BFBEFF"/>
    <path d="M148.483 389.925C150.131 392.789 154.582 394.138 157.385 392.789C159.033 391.947 159.033 390.767 160.517 390.262C163.484 389.419 165.627 392.958 167.605 391.947C168.594 391.61 168.924 390.262 169.254 387.566C169.583 384.701 169.583 380.32 168.43 375.097C167.44 374.591 156.725 368.02 149.472 372.738C148.483 373.412 145.68 374.928 145.351 377.793C145.186 379.815 146.505 380.657 147.329 384.701C148.318 388.24 147.659 388.408 148.483 389.925Z" fill="#D4D4DB"/>
    <path d="M175.517 382.341C175.847 378.128 172.55 375.095 172.22 374.758C171.231 373.747 169.912 373.242 167.275 372.231C165.461 371.388 163.813 370.714 161.67 370.377C158.043 369.535 155.406 369.029 152.274 370.377C148.647 371.894 146.669 376.106 147.163 376.78C147.988 377.623 154.581 371.051 157.384 372.905C158.868 373.916 158.868 376.612 158.703 380.656C158.373 385.205 157.549 388.576 157.878 388.744C158.538 389.081 160.186 382.678 162.494 382.846C164.802 382.846 164.802 389.587 168.099 390.429C170.737 390.935 175.188 387.059 175.517 382.341Z" fill="#EFEFF1"/>
    <path d="M514.205 419.62C515.854 422.485 520.305 423.833 523.107 422.485C524.756 421.642 524.756 420.463 526.239 419.957C529.207 419.115 531.35 422.653 533.328 421.642C534.317 421.305 534.647 419.957 534.976 417.261C535.306 414.397 535.306 410.016 534.152 404.792C533.163 404.287 522.448 397.715 515.195 402.433C514.205 403.107 511.403 404.624 511.073 407.488C510.908 409.51 512.227 410.353 513.052 414.397C514.041 417.767 513.546 418.104 514.205 419.62Z" fill="#D4D4DB"/>
    <path d="M541.24 412.036C541.57 407.824 538.273 404.791 537.943 404.454C536.954 403.443 535.635 402.937 532.998 401.926C531.184 401.084 529.536 400.41 527.393 400.073C523.766 399.23 521.129 398.725 517.996 400.073C514.37 401.589 512.392 405.802 512.886 406.476C513.71 407.318 520.304 400.747 523.107 402.6C524.59 403.611 524.59 406.307 524.426 410.351C524.096 414.901 523.272 418.271 523.601 418.439C524.261 418.776 525.909 412.373 528.217 412.542C530.525 412.542 530.525 419.282 533.822 420.124C536.459 420.461 540.91 416.754 541.24 412.036Z" fill="#EFEFF1"/>
    <path d="M196.543 404.285H125.988V399.062H196.543V404.285Z" fill="#9591CB"/>
    <path d="M191.598 399.904H129.78V394.007H191.598V399.904Z" fill="#ECEAEF"/>
    <path d="M191.268 393.501C177.421 392.49 162.419 392.49 146.594 393.501C140.824 393.838 135.055 394.512 129.78 395.018C129.944 394.681 129.944 394.512 130.109 394.007C131.758 393.67 133.736 393.501 135.549 393.164C154.507 390.805 172.475 390.805 189.29 392.659C189.784 392.996 190.444 393.333 191.268 393.501Z" fill="#ECEAEF"/>
    <path d="M124.999 399.904H133.406C133.571 399.904 135.055 398.725 135.055 396.703C134.89 395.018 133.571 394.007 133.406 393.838C130.604 393.838 127.801 393.838 124.999 393.838V399.904Z" fill="#BFBEFF"/>
    <path d="M133.406 399.904C133.241 399.567 132.417 397.714 130.439 397.04C129.45 396.703 128.79 396.703 128.131 396.871C120.548 397.377 112.471 397.882 104.887 398.388C98.7881 405.128 92.6887 412.036 86.5894 418.608C96.9748 420.125 107.36 421.473 117.581 422.989L133.406 399.904Z" fill="#9591CB"/>
    <path d="M133.406 393.838C129.944 395.355 125.658 398.051 121.043 401.926C115.767 406.644 112.306 411.868 110.327 415.238C103.239 414.227 96.3153 413.216 89.3917 412.205C90.8754 408.835 93.5129 403.78 98.4584 398.893C100.931 396.534 103.404 394.849 105.712 393.838C114.778 394.007 124.01 393.838 133.406 393.838Z" fill="#ECEAEF"/>
    <path d="M478.269 389.963V228.032H465.246V389.963H478.269Z" fill="url(#paint3_linear)"/>
    <path d="M540.087 251.285C535.141 252.97 526.404 257.014 517.832 267.798C505.469 283.132 501.842 302.51 501.018 309.25C516.184 310.598 531.185 311.609 546.516 312.957C547.01 307.228 548.824 292.905 557.066 280.267C569.43 261.395 586.244 261.395 589.047 261.395C572.727 258.025 556.407 254.655 540.087 251.285Z" fill="white"/>
    <path d="M1100.64 105.402C1099 101.527 1096.85 95.9663 1096.03 88.7207C1095.37 83.4972 1095.7 78.7791 1096.03 75.2405C1085.97 77.9366 1075.92 80.4641 1065.86 83.1602C1066.52 83.8342 1071.14 89.2262 1070.15 96.9773C1069.16 104.728 1062.73 108.604 1061.91 108.941C1068.83 107.93 1075.75 107.256 1083.01 106.413C1088.94 106.245 1094.88 105.739 1100.64 105.402Z" fill="#D4C2FF"/>
    <path d="M1093.23 77.431C1099.49 70.0169 1099.99 53.8407 1091.08 45.247C1081.03 35.6424 1063.06 34.7999 1050.37 44.236C1048.72 47.1006 1048.55 49.2911 1048.72 50.8076C1048.88 54.1777 1050.53 54.8517 1050.2 57.8847C1049.87 59.4012 1049.38 60.0753 1048.72 63.6138C1048.72 63.6138 1048.39 64.9618 1048.39 65.9728C1047.73 70.3539 1051.52 75.2405 1054.49 81.4751C1057.78 88.5522 1057.13 91.2482 1059.76 92.2592C1061.25 92.9332 1063.39 92.4277 1067.51 91.4167C1070.31 90.7427 1072.46 90.0687 1073.77 89.7317C1074.1 89.3947 1074.76 88.7207 1075.42 88.0467C1082.68 80.2956 1090.09 80.9696 1093.23 77.431Z" fill="#D4C2FF"/>
    <path d="M1045.42 54.8517C1048.88 54.1777 1052.34 53.5037 1055.81 53.1667C1055.48 52.3242 1055.48 51.4817 1055.31 50.4707C1054.98 46.5951 1056.14 43.2251 1056.96 41.3715C1054.49 37.833 1052.01 34.4629 1049.38 30.9244C1043.11 35.4739 1039.65 42.3825 1041.3 48.2801C1041.96 51.3132 1043.77 53.5037 1045.42 54.8517Z" fill="#142435"/>
    <path d="M955.908 360.684C955.414 359.673 954.754 358.325 954.26 358.325C953.271 358.662 954.095 364.559 953.271 370.288C952.776 373.995 951.622 379.05 947.501 385.117C949.479 385.454 952.447 385.622 955.579 385.117C960.524 384.274 964.48 382.42 966.623 380.904C967.612 378.376 968.272 375.175 968.931 371.636C969.591 367.929 969.92 364.391 969.92 361.695C965.14 361.526 960.524 361.189 955.908 360.684Z" fill="#FFC55C"/>
    <path d="M911.729 327.152C911.729 325.972 911.564 324.456 911.07 324.287C910.08 323.95 908.597 329.848 905.465 334.903C903.651 337.936 900.354 342.317 894.255 346.024C895.903 347.203 898.706 348.383 901.673 349.394C906.619 350.911 910.74 350.574 913.377 350.405C915.191 348.383 917.169 345.855 919.147 342.822C921.125 339.621 922.774 336.588 923.763 334.06C919.971 331.701 915.85 329.174 911.729 327.152Z" fill="#FFC55C"/>
    <path d="M891.123 422.019H877.606V212.907H891.123V422.019Z" fill="#E1D5C2"/>
    <path d="M877.441 422.019H867.879V212.907H877.441V422.019Z" fill="#E1D3BE"/>
    <path d="M872.165 194.035H1139.55C1139.55 211.054 1137.24 225.039 1134.11 225.039H872.165V194.035Z" fill="url(#paint4_radial)"/>
    <path d="M906.124 328.5C911.729 331.027 917.499 333.555 923.104 336.251C931.346 323.445 939.588 309.964 947.666 295.642C955.249 282.162 962.667 269.018 969.426 256.212C988.878 261.941 1008.17 267.502 1027.62 273.062C1052.34 290.924 1081.36 285.026 1090.75 269.018C1097.02 258.403 1095.04 243.406 1087.13 230.6C1071.47 233.127 1058.28 232.285 1047.4 230.263C1035.04 227.904 1031.41 225.208 1000.75 215.098C977.998 207.683 968.931 205.83 961.184 210.548C956.403 213.581 954.26 217.794 951.458 223.86C933.324 262.11 917.169 303.224 906.124 328.5Z" fill="#0146BE"/>
    <path d="M838.319 194.502H967.066V103.848C967.066 100.815 964.593 98.1188 961.461 98.1188H843.924C840.957 98.1188 838.319 100.646 838.319 103.848V194.502Z" fill="#CDBDDC"/>
    <path d="M840.957 187.088H971.846V103.679C971.846 100.646 969.538 98.1188 966.406 98.1188H846.232C843.265 98.1188 840.792 100.478 840.792 103.679L840.957 187.088Z" fill="#4F4954"/>
    <path d="M967.066 182.539H847.386V104.859H967.066V182.539Z" fill="#0052DF"/>
    <path d="M944.976 167.71H867.662V119.182H944.976V167.71Z" fill="white"/>
    <path d="M888.103 187.088C926.513 187.088 965.088 187.257 1003.5 187.257C1006.3 187.257 1008.44 189.11 1008.44 191.806V194.839C968.22 194.839 927.997 194.839 887.774 194.839C887.939 193.491 888.103 188.268 888.103 187.088Z" fill="#83798C"/>
    <path d="M902.895 127.312H874.376V129.166H902.895V127.312Z" fill="#A89AB3"/>
    <path d="M902.895 134.726H874.376V136.58H902.895V134.726Z" fill="#A89AB3"/>
    <path d="M902.895 142.14H874.376V143.995H902.895V142.14Z" fill="#A89AB3"/>
    <path d="M902.895 149.217H874.376V151.072H902.895V149.217Z" fill="#A89AB3"/>
    <path d="M902.895 156.632H874.376V158.486H902.895V156.632Z" fill="#A89AB3"/>
    <path d="M938.458 127.312H911.588V129.166H938.458V127.312Z" fill="#A89AB3"/>
    <path d="M938.458 134.726H911.588V136.58H938.458V134.726Z" fill="#A89AB3"/>
    <path d="M938.458 142.14H911.588V143.995H938.458V142.14Z" fill="#A89AB3"/>
    <path d="M938.458 149.217H911.588V151.072H938.458V149.217Z" fill="#A89AB3"/>
    <path d="M938.458 156.632H911.588V158.486H938.458V156.632Z" fill="#A89AB3"/>
    <path opacity="0.41" d="M926.071 97.4828L878.924 97.3143C868.044 127.139 856.835 156.796 845.955 186.621C863.429 186.621 880.738 186.621 898.376 186.621C907.608 156.796 916.839 127.139 926.071 97.4828Z" fill="#E9E6EB"/>
    <path d="M923.104 187.126C924.422 185.61 927.06 182.577 931.016 181.06C932.335 180.555 934.643 179.544 937.61 179.544C938.27 179.544 938.929 179.712 939.918 179.544C942.061 179.375 943.38 178.869 944.369 178.701C945.523 178.364 946.842 178.532 952.117 181.566C954.425 182.914 957.392 184.599 960.854 187.295C964.645 188.306 969.096 188.811 974.371 188.98C982.119 189.317 989.043 188.474 994.153 187.295C1001.24 187.295 1008 187.295 1015.09 187.295C1014.76 189.317 1014.1 193.866 1010.64 198.416C1007.51 202.797 1003.55 204.819 1001.9 205.661C972.558 198.416 960.854 197.236 955.743 197.573C954.26 197.742 950.798 198.079 947.171 196.225C946.512 195.888 945.688 195.383 939.918 190.496C935.962 187.126 935.467 186.621 934.313 186.284C932.005 185.947 931.016 187.295 927.39 187.463C925.741 187.632 924.257 187.295 923.104 187.126Z" fill="#D4C2FF"/>
    <path d="M982.119 396.575C959.865 405.337 937.61 410.729 915.356 419.491C913.707 417.301 911.564 414.099 912.388 410.56C913.377 406.179 917.499 403.989 921.29 401.461C936.621 390.509 940.083 378.713 944.863 379.893C945.688 380.23 946.677 380.904 947.501 383.432C949.149 384.106 952.282 384.78 955.743 383.937C961.513 382.42 966.294 377.365 968.107 370.794C970.415 374.164 973.052 378.208 975.525 382.757C977.174 385.959 978.492 388.992 979.646 391.857C980.306 393.542 981.295 395.058 982.119 396.575Z" fill="#0146BE"/>
    <path d="M1025.31 186.621C1026.79 188.306 1028.61 189.991 1032.4 191.844C1036.19 193.698 1039.82 194.877 1042.12 195.551C1043.44 195.046 1044.93 194.035 1045.75 192.35C1046.41 191.002 1046.24 189.991 1046.41 188.474C1046.74 185.273 1047.89 183.419 1048.55 181.397C1050.04 177.69 1056.8 158.144 1066.69 128.15C1066.19 118.883 1061.08 112.143 1054.98 110.795C1053.66 110.458 1050.7 110.289 1047.07 112.311C1045.42 113.828 1042.62 116.524 1039.82 120.062C1032.23 130.846 1032.4 140.788 1027.95 158.986C1026.79 163.536 1024.98 170.107 1021.85 178.364C1022.34 181.903 1023.83 184.599 1025.31 186.621Z" fill="#FFC55C"/>
    <path d="M1044.43 114.839C1037.18 123.264 1042.12 132.194 1043.44 167.748C1044.76 196.731 1042.45 208.863 1034.71 216.783C1031.24 220.321 1027.78 222.512 1025.47 223.86C1037.84 230.768 1046.41 237.845 1051.85 243.574C1057.13 248.798 1060.09 252.842 1066.19 256.044C1074.6 260.593 1083.67 260.088 1089.93 258.908C1092.57 238.856 1097.18 215.94 1104.77 191.339C1107.57 182.577 1113.17 174.32 1115.98 159.66C1117.95 149.382 1120.92 131.352 1111.2 115.007C1106.91 107.93 1101.8 103.717 1098.34 101.021C1096.19 100.684 1093.89 100.516 1091.25 100.347C1087.62 100.179 1079.05 100.179 1067.35 103.886C1055.31 107.593 1048.88 109.615 1044.43 114.839Z" fill="#FFC55C"/>
    <path d="M1111.52 114.67C1107.24 107.593 1102.13 103.38 1098.67 100.684C1097.84 100.516 1096.69 100.347 1095.2 100.347C1095.2 100.347 1091.58 100.01 1088.61 100.01C1084.98 100.01 1077.57 101.021 1068.01 103.717C1068.33 106.75 1069.49 108.604 1070.15 109.615C1073.45 113.996 1080.2 115.344 1086.96 112.985C1089.27 112.142 1093.23 111.3 1098.17 111.637C1105.59 112.479 1110.7 116.187 1112.68 117.703C1112.35 116.692 1111.85 115.681 1111.52 114.67Z" fill="url(#paint5_radial)"/>
    <path d="M982.614 397.249L915.85 422.187L914.202 417.974C935.797 407.864 957.227 401.293 978.822 391.014C979.976 393.205 981.295 395.227 982.614 397.249Z" fill="#EEEBFF"/>
    <path d="M986.576 421.836C991.856 421.836 996.137 417.46 996.137 412.063C996.137 406.665 991.856 402.29 986.576 402.29C981.295 402.29 977.014 406.665 977.014 412.063C977.014 417.46 981.295 421.836 986.576 421.836Z" fill="#806A9F"/>
    <path d="M1117.96 421.836C1123.24 421.836 1127.52 417.46 1127.52 412.063C1127.52 406.665 1123.24 402.29 1117.96 402.29C1112.68 402.29 1108.4 406.665 1108.4 412.063C1108.4 417.46 1112.68 421.836 1117.96 421.836Z" fill="#806A9F"/>
    <path d="M1052.35 421.836C1057.63 421.836 1061.91 417.46 1061.91 412.063C1061.91 406.665 1057.63 402.29 1052.35 402.29C1047.07 402.29 1042.79 406.665 1042.79 412.063C1042.79 417.46 1047.07 421.836 1052.35 421.836Z" fill="#806A9F"/>
    <path d="M1046.84 383.08H1057.39V289.898H1046.84V383.08Z" fill="#D3D2F0"/>
    <path d="M1060.52 379.71L1114.92 398.751C1118.38 399.931 1120.2 403.806 1119.04 407.176L1118.55 408.861L1054.42 386.282L1055.91 381.901C1056.23 380.047 1058.38 378.868 1060.52 379.71Z" fill="#D3D2F0"/>
    <path d="M1042.88 380.384L989.801 399.088C986.174 400.436 984.361 404.143 985.515 407.85L986.009 409.367L1050.14 386.787L1048.98 383.417C1048.16 380.721 1045.52 379.373 1042.88 380.384Z" fill="#D3D2F0"/>
    <path d="M1052.28 413.748C1054.42 413.748 1056.07 412.063 1056.07 409.872V377.52C1056.07 375.329 1054.42 373.644 1052.28 373.644C1050.14 373.644 1048.49 375.329 1048.49 377.52V409.872C1048.65 411.894 1050.14 413.748 1052.28 413.748Z" fill="#D3D2F0"/>
    <path d="M915.356 373.827C892.936 366.75 870.517 359.841 848.098 352.764C848.098 349.9 848.757 346.193 851.394 344.17C854.691 341.474 859.307 342.485 863.923 342.822C882.386 344.002 894.42 334.566 897.387 338.441C897.882 339.115 898.376 340.295 897.222 342.991C898.211 344.507 900.025 346.867 903.157 348.383C908.432 350.911 915.356 350.068 920.631 346.024C920.301 350.068 919.807 354.618 918.817 359.673C917.993 363.043 917.169 366.244 916.345 368.94C916.015 370.625 915.685 372.142 915.356 373.827Z" fill="#0146BE"/>
    <path d="M915.356 374.164L847.108 354.28L848.262 350.405C870.847 356.134 893.596 361.695 916.18 367.424C915.85 369.783 915.685 371.973 915.356 374.164Z" fill="#EEEBFF"/>
    <path d="M1060.59 231.779H1110.21C1123.23 231.779 1133.78 220.995 1133.78 207.515V177.185C1133.78 163.873 1123.52 153 1110.5 153H1060.5C1047.48 153 1037.01 163.704 1037.01 177.185V207.515C1037.01 220.995 1047.56 231.779 1060.59 231.779Z" fill="#035FFE"/>
    <path d="M1070.31 231.779H1119.93C1132.96 231.779 1143.51 220.995 1143.51 207.515V177.185C1143.51 163.873 1133.02 153 1120 153L1070.31 152.92C1057.29 152.92 1046.74 163.704 1046.74 177.185V207.515C1046.9 220.995 1057.45 231.779 1070.31 231.779Z" fill="#0052DF"/>
    <path d="M1127.68 201.617C1120.26 201.28 1119.27 191.676 1109.22 188.474C1097.68 184.767 1089.77 193.529 1081.52 188.98C1076.25 185.947 1073.28 179.038 1074.1 173.646C1074.93 169.265 1077.73 168.085 1077.73 164.547C1077.57 159.66 1071.95 155.528 1067 153C1068 153 1069.01 153 1070 153C1086.48 153 1102.85 153 1119.5 153C1121.81 153 1127.85 153.257 1133.78 157.638C1142.02 163.536 1143.34 172.983 1143.5 174.5C1143.66 179.05 1143.34 183.782 1143.5 188.5C1139.54 194.566 1134.44 201.954 1127.68 201.617Z" fill="url(#paint6_radial)"/>
    <path d="M1021.85 292.103H1113.67C1118.28 292.103 1122.24 288.228 1122.24 283.341V282.667C1122.24 277.949 1118.45 273.905 1113.67 273.905H1021.85C1017.23 273.905 1013.28 277.78 1013.28 282.667V283.341C1013.11 288.228 1017.07 292.103 1021.85 292.103Z" fill="#035FFE"/>
    <path d="M997.285 292.103H1030.58C1035.53 292.103 1039.49 288.059 1039.49 283.004C1039.49 277.949 1035.53 273.905 1030.58 273.905H997.285C992.34 273.905 988.383 277.949 988.383 283.004C988.383 288.059 992.175 292.103 997.285 292.103Z" fill="#0052DF"/>
    <path d="M1093.23 289.576H1101.47C1103.45 289.576 1105.26 287.891 1105.26 285.7V213.749C1105.26 211.39 1103.45 209.368 1100.97 209.368H1093.23C1090.92 209.368 1088.94 211.222 1088.94 213.749V285.195C1088.94 287.722 1090.92 289.576 1093.23 289.576Z" fill="#D3D2F0"/>
    <path d="M996.461 273.736C995.637 274.073 990.856 275.758 989.043 280.982C988.383 283.004 988.548 285.026 988.713 286.037C983.603 311.987 978.328 337.936 973.053 364.054C965.634 363.38 958.051 362.537 950.633 362.032C954.095 329.848 957.722 298.001 961.019 265.817C962.502 262.11 966.788 253.853 975.031 251.494C980.141 249.978 984.757 251.831 992.505 255.033C998.769 257.392 1002.07 259.582 1009.15 263.963C1013.61 266.491 1020.2 270.366 1028.61 274.747C1018.06 274.41 1007.18 274.073 996.461 273.736Z" fill="#035FFE"/>
    <path d="M1066.19 55.3572C1067.18 55.8627 1068.01 56.7052 1069.16 57.8847C1070.64 59.5698 1070.81 61.5918 1070.64 62.4343C1070.31 62.9398 1069.98 63.4453 1069.98 63.4453C1069.82 63.6138 1069.65 63.7823 1069.65 63.9508C1068.99 64.7933 1068.5 65.1303 1067.68 66.3098C1067.18 67.1524 1064.54 73.5555 1065.7 80.4641C1067.51 91.0797 1077.24 96.9773 1078.72 97.6513C1085.15 98.1568 1090.42 97.8198 1094.38 97.3143C1100.48 96.4718 1104.93 95.1238 1106.58 94.4498C1110.87 92.9332 1114 92.0907 1117.29 89.3947C1120.43 87.0356 1122.4 84.3396 1123.56 82.3176C1115.32 77.5995 1111.85 72.3759 1110.04 68.8374C1104.6 57.5477 1111.36 48.7856 1104.44 36.1479C1101.47 30.9243 1098.01 28.0598 1096.69 27.0488C1092.73 24.1842 1089.11 23.1732 1086.14 22.4992C1083.67 21.6567 1077.57 20.4772 1069.82 21.3197C1066.19 21.6567 1058.94 22.4992 1052.34 27.7228C1049.87 29.5763 1044.93 33.6204 1045.09 39.0124C1045.26 41.3715 1046.41 43.562 1047.23 44.573C1047.23 44.0675 1047.23 42.888 1048.22 41.54C1048.72 40.866 1049.38 40.529 1049.87 40.192C1053.99 41.0345 1055.48 42.3825 1056.14 43.7305C1057.13 45.4155 1056.3 46.7636 1057.62 49.1226C1058.61 50.8076 1059.93 51.6501 1060.75 52.3241C1062.73 54.0092 1063.72 53.5037 1066.19 55.3572Z" fill="#142435"/>
    <path d="M877.111 283.173H890.958V224.871H877.111V283.173Z" fill="url(#paint7_radial)"/>
    <path d="M778.696 422.019H765.014V212.907H778.696V422.019Z" fill="#CFB997"/>
    <path d="M764.684 422.019H756.277V212.907H764.684V422.019Z" fill="#E1D5C2"/>
    <path d="M765.014 386.802H778.367V224.871H765.014V386.802Z" fill="url(#paint8_radial)"/>
    <path d="M1068.83 68.1633C1068.5 67.4893 1067.84 66.9838 1067.51 66.4783C1064.54 70.1853 1063.39 73.8924 1063.06 75.9144C1062.24 78.9475 1060.92 85.1821 1064.54 89.2261C1066.19 90.9112 1068.17 91.7537 1069.49 92.0907C1068.5 90.7427 1067.51 89.3946 1066.69 87.5411C1062.89 78.6105 1067.68 70.0168 1068.83 68.1633Z" fill="#142435"/>
    <path d="M973.712 251.494C972.228 250.483 970.25 249.135 968.272 247.113C965.634 244.248 963.986 241.384 963.327 239.53C957.062 252.842 950.468 265.985 944.204 279.466C953.93 270.029 963.821 260.762 973.712 251.494Z" fill="url(#paint9_radial)"/>
    <path d="M979.482 365.402L949.15 363.211L949.974 352.259L980.141 354.281L979.482 365.402Z" fill="#0052DF"/>
    <path d="M927.06 341.474L901.673 324.793L907.443 315.525L932.829 332.207L927.06 341.474Z" fill="#0052DF"/>
    <path d="M947.501 383.768L946.347 387.307C939.753 391.52 926.071 397.923 926.565 410.223C926.565 410.729 926.73 411.403 926.73 411.908C928.873 410.897 931.181 409.718 933.159 408.707C932.994 407.022 932.994 404.831 933.489 402.809C935.632 391.857 946.182 389.329 948.49 388.318C950.139 388.487 962.832 389.161 968.766 380.735C969.756 379.556 970.415 378.039 971.074 376.017C970.085 374.501 969.096 372.984 968.107 371.468C967.777 372.479 966.459 378.713 960.524 382.252C954.425 385.453 948.49 383.937 947.501 383.768Z" fill="#EEEBFF"/>
    <path d="M897.057 342.654L894.09 344.507C886.507 343.496 869.857 342.654 862.604 352.09C862.274 352.427 861.945 353.101 861.615 353.438C863.923 353.944 866.231 354.449 868.703 354.955C869.693 353.438 871.011 351.922 872.825 350.405C881.232 343.328 892.771 345.687 895.409 346.024C896.563 347.035 905.794 355.46 915.685 352.933C917.169 352.596 918.653 351.922 920.466 350.742C920.631 349.057 920.796 347.035 920.96 345.518C920.136 346.192 915.356 350.068 908.267 348.888C901.179 348.214 897.717 343.496 897.057 342.654Z" fill="#F2F0FF"/>
    <path d="M877.605 224.871H748.199V194.203H877.605V224.871Z" fill="#E1D3BE"/>
    <path d="M797.536 195.344H796.382C788.139 195.344 781.216 188.436 781.216 179.842V161.138C781.051 160.633 781.381 160.464 781.71 160.464C788.139 160.464 792.755 160.464 796.052 160.464C799.679 160.464 804.789 160.464 811.878 160.464C812.207 160.464 812.537 160.633 812.537 161.138V179.842C812.537 188.267 805.778 195.344 797.536 195.344Z" fill="#FFC55C"/>
    <path d="M782.37 169.226C777.919 166.867 773.962 167.036 772.479 169.058C771.16 170.743 772.479 174.113 773.798 176.135C776.106 179.337 779.073 179.168 782.37 183.212C783.359 184.392 783.853 185.234 784.183 186.077" stroke="#FFC55C" stroke-width="2.072"/>
    <path d="M959.04 184.767C958.546 185.104 953.93 188.306 953.765 194.035C953.6 197.405 955.249 199.764 955.908 200.775C964.48 202.46 985.087 205.998 1006.02 205.493C1013.77 205.324 1023.99 205.661 1032.4 198.921C1034.71 197.236 1036.35 195.214 1037.34 193.866C1032.4 188.811 1027.62 183.251 1022.67 178.196C1019.7 178.701 1016.74 179.207 1013.77 179.712C994.483 182.745 976.185 184.43 959.04 184.767Z" fill="#FFC55C"/>
    <path d="M846.779 105.739C847.108 91.5852 847.603 77.2625 847.933 63.1083C859.637 37.4959 875.297 24.5212 884.859 17.7811C927.225 -11.2013 991.515 -4.29271 1046.25 35.1369C1045.26 42.214 1046.57 46.595 1048.06 49.6281C1049.38 51.9871 1050.7 53.3351 1051.85 56.5367C1053.5 61.0862 1053.33 65.2988 1053.17 66.8153C1053 71.3649 1055.31 78.9475 1067.35 91.0797C1062.4 99.1678 1057.29 107.424 1052.34 115.513C1043.44 127.139 1039.32 137.418 1037.51 144.832C1035.86 151.572 1035.2 158.481 1030.75 168.254C1028.11 174.488 1025.14 179.038 1023.17 182.24C1020.36 184.599 1015.75 187.969 1009.48 189.485C1005.03 190.496 1001.74 190.328 1000.42 190.328C993.988 189.991 981.295 190.159 954.095 192.687C954.095 191.676 954.26 190.328 955.084 188.306C956.238 185.947 958.051 184.599 958.875 184.093C960.854 184.093 962.997 184.262 965.14 184.262C966.294 184.262 967.283 184.43 968.437 184.43C967.942 157.807 967.448 131.183 966.953 104.56C926.895 105.234 886.837 105.402 846.779 105.739Z" fill="url(#paint10_linear)"/>
    <defs>
        <radialGradient id="paint0_radial" cx="0" cy="0" r="1" gradientUnits="userSpaceOnUse" gradientTransform="translate(446.341 492.2) scale(763.612 489.769)">
            <stop offset="0.4669" stop-color="#5454FF"/>
            <stop offset="0.8933" stop-color="#571CFF" stop-opacity="0.6"/>
        </radialGradient>
        <linearGradient id="paint1_linear" x1="297.119" y1="210.592" x2="526.377" y2="210.592" gradientUnits="userSpaceOnUse">
            <stop stop-color="#8E8CFF"/>
            <stop offset="0.7581" stop-color="#DEDDFF"/>
        </linearGradient>
        <radialGradient id="paint2_radial" cx="0" cy="0" r="1" gradientUnits="userSpaceOnUse" gradientTransform="translate(171.552 136.05) scale(74.6226 76.2765)">
            <stop offset="0.0418876" stop-color="#402A84"/>
            <stop offset="1" stop-color="#716FCE" stop-opacity="0"/>
        </radialGradient>
        <linearGradient id="paint3_linear" x1="471.756" y1="168.726" x2="471.756" y2="333.708" gradientUnits="userSpaceOnUse">
            <stop offset="0.1483" stop-color="#716FCE"/>
            <stop offset="1" stop-color="#9E9BFF" stop-opacity="0"/>
        </linearGradient>
        <radialGradient id="paint4_radial" cx="0" cy="0" r="1" gradientUnits="userSpaceOnUse" gradientTransform="translate(1005.86 209.383) scale(95.1542 97.263)">
            <stop offset="0.0418876" stop-color="#A99680"/>
            <stop offset="1" stop-color="#D2BB98"/>
        </radialGradient>
        <radialGradient id="paint5_radial" cx="0" cy="0" r="1" gradientUnits="userSpaceOnUse" gradientTransform="translate(1103.57 95.37) scale(39.4077 40.2812)">
            <stop offset="0.0498744" stop-color="#FFB633"/>
            <stop offset="1" stop-color="#FFC55C" stop-opacity="0"/>
        </radialGradient>
        <radialGradient id="paint6_radial" cx="0" cy="0" r="1" gradientUnits="userSpaceOnUse" gradientTransform="translate(1149.73 230.1) rotate(180) scale(69.9743 71.5254)">
            <stop stop-color="#003BA2"/>
            <stop offset="1" stop-color="#0050D9"/>
        </radialGradient>
        <radialGradient id="paint7_radial" cx="0" cy="0" r="1" gradientUnits="userSpaceOnUse" gradientTransform="translate(885.629 220.121) rotate(180) scale(21.1911 21.6608)">
            <stop offset="0.0418876" stop-color="#8A806F"/>
            <stop offset="1" stop-color="#B39F81" stop-opacity="0"/>
        </radialGradient>
        <radialGradient id="paint8_radial" cx="0" cy="0" r="1" gradientUnits="userSpaceOnUse" gradientTransform="translate(773.503 211.591) rotate(180) scale(20.4926 20.947)">
            <stop offset="0.0418876" stop-color="#8A806F"/>
            <stop offset="1" stop-color="#B39F81" stop-opacity="0"/>
        </radialGradient>
        <radialGradient id="paint9_radial" cx="0" cy="0" r="1" gradientUnits="userSpaceOnUse" gradientTransform="translate(971.688 243.642) scale(33.3335 34.0722)">
            <stop offset="0.0544782" stop-color="#1E0E3D"/>
            <stop offset="1" stop-color="#371970" stop-opacity="0"/>
        </radialGradient>
        <linearGradient id="paint10_linear" x1="957.068" y1="113.336" x2="957.068" y2="26.2311" gradientUnits="userSpaceOnUse">
            <stop stop-color="#F2EDFF" stop-opacity="0.5"/>
            <stop offset="0.5071" stop-color="#FBF9FF" stop-opacity="0.2465"/>
            <stop offset="1" stop-color="white" stop-opacity="0"/>
        </linearGradient>
    </defs>
</svg>
