<svg width="64" height="64" viewBox="0 0 64 64" fill="none" xmlns="http://www.w3.org/2000/svg">
    <path d="M26 36C27.1046 36 28 36.8954 28 38C28 39.0257 27.2279 39.871 26.2332 39.9865L26 40H24V50C24 51.0257 24.7721 51.871 25.7668 51.9865L26 52C27.1046 52 28 52.8954 28 54C28 55.1046 27.1046 56 26 56C22.6863 56 20 53.3137 20 50V40H16V50C16 51.1046 15.1046 52 14 52C12.9743 52 12.129 51.2279 12.0135 50.2332L12 50V40H10C8.89543 40 8 39.1046 8 38C8 36.9743 8.77208 36.129 9.76676 36.0135L10 36H26ZM32 8C33.1046 8 34 8.89543 34 10L33.998 10.034V30H54C55.1046 30 56 30.8954 56 32C56 45.2548 45.2548 56 32 56C30.8954 56 30 55.1046 30 54C30 52.8954 30.8954 52 32 52C42.3699 52 50.8966 44.1078 51.901 34.0022L32.595 33.9974C32.4395 33.9942 32.3351 33.9871 32.2001 33.9721C31.6453 33.9104 31.1542 33.7334 30.7097 33.2885C30.2656 32.8439 30.0891 32.3533 30.0276 31.7988L30.007 31.5454L29.9998 31L29.9978 12.099C19.8922 13.1034 12 21.6301 12 32C12 33.1046 11.1046 34 10 34C8.89543 34 8 33.1046 8 32C8 18.9491 18.4171 8.33121 31.3901 8.0076L31.9998 8H32ZM40.5961 25.9974C40.4404 25.9942 40.336 25.9871 40.201 25.9721C39.6462 25.9105 39.1553 25.7338 38.7108 25.2892C38.2662 24.8446 38.0895 24.3538 38.0279 23.799L38.0073 23.5455C38.0041 23.4803 38.0023 23.409 38.0013 23.3215L38 10C38 8.89543 38.8954 8 40 8C48.6698 8 55.7291 14.8957 55.9924 23.5016L56 24C56 25.0257 55.2279 25.871 54.2332 25.9865L54 26L40.5961 25.9974ZM42.0016 12.1662L42 22L51.8341 22.0004C50.9913 16.9757 47.026 13.0098 42.0016 12.1662Z" fill="#0080EE"/>
</svg>
