<svg width="64" height="64" viewBox="0 0 64 64" fill="none" xmlns="http://www.w3.org/2000/svg">
    <path d="M34 36C39.5228 36 44 40.4772 44 46C44 51.3775 39.7554 55.7636 34.4338 55.9908L34 56H18.0078C12.485 56 8.00781 51.5228 8.00781 46C8.00781 40.6225 12.2524 36.2364 17.574 36.0092L18.0078 36H34ZM53.35 8.00167L53.454 8.00383L53.5455 8.00725L53.799 8.02786C54.3537 8.0895 54.8446 8.26622 55.2892 8.71079C55.7338 9.15535 55.9105 9.64625 55.9721 10.201C55.9821 10.291 55.9886 10.3674 55.9927 10.4545L55.9974 10.5961L56 17C56 17.1953 55.9994 17.3311 55.9965 17.4418L55.9927 17.5455L55.9721 17.799C55.9105 18.3538 55.7338 18.8446 55.2892 19.2892C54.8446 19.7338 54.3537 19.9105 53.799 19.9721C53.709 19.9821 53.6326 19.9886 53.5455 19.9928L53.4039 19.9974L52 19.9964V22.0004L53.2252 22.0005L53.5379 22.0066C53.6233 22.0104 53.6979 22.0163 53.7853 22.0254C54.3251 22.0816 54.7983 22.2414 55.2429 22.6581C55.7111 23.0971 55.904 23.5995 55.9705 24.1601L55.9923 24.4102L56 24.9375L55.9972 53.4523C55.9939 53.603 55.9864 53.7052 55.9705 53.8399C55.904 54.4005 55.7111 54.9029 55.2429 55.3419C54.7983 55.7586 54.3251 55.9184 53.7853 55.9746L53.5379 55.9934L53 56H45.9972C44.8927 56 43.9972 55.1046 43.9972 54C43.9972 52.9743 44.7693 52.129 45.764 52.0135L45.9972 52H52V26H32V32C32 33.0257 31.2279 33.871 30.2332 33.9865L30 34C28.9743 34 28.129 33.2279 28.0134 32.2332L28 32L28.0005 24.7137C28.0021 24.4588 28.0082 24.3372 28.0295 24.1581C28.0959 23.598 28.2888 23.0958 28.757 22.6571C29.2013 22.2409 29.674 22.0814 30.213 22.0253C30.3874 22.0072 30.5104 22.0019 30.7713 22.0005L32.002 22.0004L32 20.0039L31.998 19.9984L30.7069 19.999C30.6669 19.9986 30.6305 19.9981 30.5966 19.9973L30.5014 19.9945L30.2707 19.9792C29.7918 19.9354 29.3752 19.8165 28.9526 19.4991C28.4387 19.1131 28.1703 18.5998 28.0631 18.0356C28.0262 17.8413 28.0105 17.6718 28.0041 17.4464L28.0003 17.1995L28.002 10.6314L28.0034 10.5636L28.0055 10.5015L28.0208 10.2707C28.0646 9.79185 28.1835 9.37525 28.5009 8.95261C28.8869 8.43871 29.4002 8.17034 29.9644 8.06313C30.1586 8.02623 30.3282 8.01056 30.5536 8.00414L30.8006 8.00037L53.35 8.00167ZM24.0078 40H18.0078C14.6941 40 12.0078 42.6863 12.0078 46C12.0078 49.1954 14.5057 51.8073 17.6553 51.9898L18.0078 52H24.0078V40ZM34 40H28.0078V52H34C37.3137 52 40 49.3137 40 46C40 42.8046 37.5021 40.1927 34.3525 40.0102L34 40ZM16 43C17.1045 43 18 43.8954 18 45C18 45.5523 18.4477 46 19 46C20.1045 46 21 46.8954 21 48C21 49.1046 20.1045 50 19 50C16.2386 50 14 47.7614 14 45C14 43.8954 14.8954 43 16 43ZM48 19.9964L35.998 19.9984L36.0039 21.9961L36.002 22.0004H48V19.9964ZM52 11.998L31.998 12L32 16H52V11.998Z" fill="#00BCD2"/>
</svg>
