<svg width="36" height="36" viewBox="0 0 36 36" fill="none" xmlns="http://www.w3.org/2000/svg">
    <path d="M34.9453 0.0703125H22.2188C20.4955 0.0703125 18.9629 0.901266 18 2.18334C17.0371 0.901266 15.5045 0.0703125 13.7812 0.0703125H1.05469C0.472219 0.0703125 0 0.542531 0 1.125V30.6562C0 31.2387 0.472219 31.7109 1.05469 31.7109H12.8325C13.3226 34.1149 15.4534 35.9297 18 35.9297C20.5466 35.9297 22.6774 34.1149 23.1675 31.7109H25.3828V34.875C25.3828 35.3016 25.6397 35.6861 26.0339 35.8494C26.4279 36.0127 26.8817 35.9224 27.1833 35.6207L28.5469 34.2572L29.9105 35.6208C30.1122 35.8226 30.382 35.9298 30.6565 35.9298C30.7924 35.9298 30.9294 35.9035 31.0598 35.8495C31.4539 35.6862 31.7109 35.3017 31.7109 34.8751V31.711H34.9453C35.5278 31.711 36 31.2388 36 30.6563V1.12507C36 0.542531 35.5278 0.0703125 34.9453 0.0703125ZM22.2188 2.17969H33.8906V21.1641H22.2188C21.0326 21.1641 19.9366 21.5578 19.0547 22.2212V5.34375C19.0547 3.59909 20.4741 2.17969 22.2188 2.17969ZM22.2188 25.3828C21.0325 25.3828 19.9367 25.7768 19.0547 26.4404V26.4375C19.0547 24.6928 20.4741 23.2734 22.2188 23.2734H33.8906V25.3828H22.2188ZM2.10938 23.2734H13.7812C15.5259 23.2734 16.9453 24.6928 16.9453 26.4375V26.4404C16.0633 25.7768 14.9675 25.3828 13.7812 25.3828H2.10938V23.2734ZM2.10938 2.17969H13.7812C15.5259 2.17969 16.9453 3.59909 16.9453 5.34375V22.2212C16.0634 21.5577 14.9674 21.1641 13.7812 21.1641H2.10938V2.17969ZM22.2188 29.6016C21.6363 29.6016 21.1641 30.0738 21.1641 30.6562C21.1641 32.4009 19.7447 33.8203 18 33.8203C16.2553 33.8203 14.8359 32.4009 14.8359 30.6562C14.8359 30.0738 14.3637 29.6016 13.7812 29.6016H2.10938V27.4922H13.7812C15.5259 27.4922 16.9453 28.9116 16.9453 30.6562C16.9453 31.2387 17.4175 31.7109 18 31.7109C18.5825 31.7109 19.0547 31.2387 19.0547 30.6562C19.0547 28.9116 20.4741 27.4922 22.2188 27.4922H25.3828V29.6016H22.2188ZM29.2926 32.0199C28.8808 31.6081 28.213 31.6081 27.8011 32.0199L27.4922 32.3288V27.4923H29.6016V32.3288L29.2926 32.0199ZM31.7109 29.6016V27.4922H33.8906V29.6016H31.7109Z" fill="white"/>
    <path d="M5.27344 6.39844H13.7812C14.3637 6.39844 14.8359 5.92622 14.8359 5.34375C14.8359 4.76128 14.3637 4.28906 13.7812 4.28906H5.27344C4.69097 4.28906 4.21875 4.76128 4.21875 5.34375C4.21875 5.92622 4.69097 6.39844 5.27344 6.39844Z" fill="white"/>
    <path d="M5.27344 10.6172H13.7812C14.3637 10.6172 14.8359 10.145 14.8359 9.5625C14.8359 8.98003 14.3637 8.50781 13.7812 8.50781H5.27344C4.69097 8.50781 4.21875 8.98003 4.21875 9.5625C4.21875 10.145 4.69097 10.6172 5.27344 10.6172Z" fill="white"/>
    <path d="M5.27344 14.8359H13.7812C14.3637 14.8359 14.8359 14.3637 14.8359 13.7812C14.8359 13.1988 14.3637 12.7266 13.7812 12.7266H5.27344C4.69097 12.7266 4.21875 13.1988 4.21875 13.7812C4.21875 14.3637 4.69097 14.8359 5.27344 14.8359Z" fill="white"/>
    <path d="M14.8359 18C14.8359 17.4175 14.3637 16.9453 13.7812 16.9453H5.27344C4.69097 16.9453 4.21875 17.4175 4.21875 18C4.21875 18.5825 4.69097 19.0547 5.27344 19.0547H13.7812C14.3637 19.0547 14.8359 18.5825 14.8359 18Z" fill="white"/>
    <path d="M22.2188 6.39844H30.7266C31.309 6.39844 31.7812 5.92622 31.7812 5.34375C31.7812 4.76128 31.309 4.28906 30.7266 4.28906H22.2188C21.6363 4.28906 21.1641 4.76128 21.1641 5.34375C21.1641 5.92622 21.6363 6.39844 22.2188 6.39844Z" fill="white"/>
    <path d="M22.2188 10.6172H30.7266C31.309 10.6172 31.7812 10.145 31.7812 9.5625C31.7812 8.98003 31.309 8.50781 30.7266 8.50781H22.2188C21.6363 8.50781 21.1641 8.98003 21.1641 9.5625C21.1641 10.145 21.6363 10.6172 22.2188 10.6172Z" fill="white"/>
    <path d="M22.2188 14.8359H30.7266C31.309 14.8359 31.7812 14.3637 31.7812 13.7812C31.7812 13.1988 31.309 12.7266 30.7266 12.7266H22.2188C21.6363 12.7266 21.1641 13.1988 21.1641 13.7812C21.1641 14.3637 21.6363 14.8359 22.2188 14.8359Z" fill="white"/>
    <path d="M22.2188 19.0547H30.7266C31.309 19.0547 31.7812 18.5825 31.7812 18C31.7812 17.4175 31.309 16.9453 30.7266 16.9453H22.2188C21.6363 16.9453 21.1641 17.4175 21.1641 18C21.1641 18.5825 21.6363 19.0547 22.2188 19.0547Z" fill="white"/>
</svg>
