<svg width="36" height="36" viewBox="0 0 36 36" fill="none" xmlns="http://www.w3.org/2000/svg">
    <path d="M32.1328 5.76574H31.9286C32.8507 3.24012 33.0952 1.30019 33.1096 1.18115C33.1484 0.860038 33.0377 0.53885 32.8091 0.309842C32.5808 0.0808346 32.2598 -0.0305404 31.9385 0.00742837C31.6476 0.0418815 24.764 0.906092 19.894 5.76574H7.73438V2.60168C7.73438 2.01921 7.26216 1.54699 6.67969 1.54699H3.86719C1.73482 1.54699 0 3.28181 0 5.41418V26.5079C0 28.6403 1.73482 30.3751 3.86719 30.3751H28.2656V34.9454C28.2656 35.5279 28.7378 36.0001 29.3203 36.0001H32.1328C34.2652 36.0001 36 34.2653 36 32.1329V9.63293C36 7.50056 34.2652 5.76574 32.1328 5.76574ZM30.7365 2.37928C30.409 3.78314 29.7404 6.02041 28.4665 8.25565L24.8951 8.96988C24.5137 9.04617 24.2052 9.32623 24.0925 9.69846C23.9798 10.0707 24.0811 10.4748 24.3562 10.7499L25.5961 11.9898C23.3771 14.1033 20.6775 15.3405 18.5628 16.0461L22.8646 11.7443C23.2765 11.3325 23.2765 10.6646 22.8646 10.2527C22.4529 9.84084 21.7851 9.84084 21.3731 10.2527L17.0714 14.5545C17.8038 12.359 19.109 9.53372 21.373 7.26958C24.456 4.18666 28.5811 2.88033 30.7365 2.37928ZM2.10938 5.41418C2.10938 4.44492 2.89793 3.65637 3.86719 3.65637H5.625V22.6407H3.86719C3.23466 22.6407 2.637 22.7934 2.10938 23.0638V5.41418ZM3.86719 28.2657C2.89793 28.2657 2.10938 27.4772 2.10938 26.5079C2.10938 25.5387 2.89793 24.7501 3.86719 24.7501H6.67969C7.26216 24.7501 7.73438 24.2779 7.73438 23.6954V7.87512H18.0951C15.2475 11.7873 14.3715 16.1629 14.1645 17.4613L11.4294 20.1964C11.0175 20.6083 11.0175 21.276 11.4294 21.6879C11.6353 21.8939 11.9052 21.9969 12.1751 21.9969C12.445 21.9969 12.715 21.8939 12.9208 21.6879L15.656 18.9528C17.1941 18.7076 23.0509 17.5241 27.3391 13.236C27.4809 13.0942 27.606 12.9553 27.7271 12.8209C27.7679 12.7756 27.8087 12.7303 27.8499 12.6853C28.2305 12.2689 28.2161 11.6267 27.8172 11.2278L27.2412 10.6518L29.3437 10.2314C29.6343 10.1733 29.887 9.99567 30.04 9.74198C30.4176 9.11599 30.7503 8.48915 31.0435 7.87512H32.1328C33.1021 7.87512 33.8906 8.66367 33.8906 9.63293V28.6901C33.3628 28.4194 32.7656 28.2657 32.1328 28.2657H29.3203H3.86719ZM32.1328 33.8907H30.375V30.3751H32.1328C33.1021 30.3751 33.8906 31.1637 33.8906 32.1329C33.8906 33.1022 33.1021 33.8907 32.1328 33.8907Z" fill="#035FFE"/>
</svg>
