<svg width="36" height="36" viewBox="0 0 36 36" fill="none" xmlns="http://www.w3.org/2000/svg">
    <path d="M32.1328 5.76562H31.9286C32.8507 3.23999 33.0952 1.30007 33.1096 1.18103C33.1484 0.859916 33.0377 0.538728 32.8091 0.30972C32.5808 0.0807126 32.2598 -0.0306625 31.9385 0.0073063C31.6476 0.0417594 24.764 0.90597 19.894 5.76562H7.73438V2.60156C7.73438 2.01909 7.26216 1.54687 6.67969 1.54687H3.86719C1.73482 1.54687 0 3.28169 0 5.41406V26.5078C0 28.6402 1.73482 30.375 3.86719 30.375H28.2656V34.9453C28.2656 35.5278 28.7378 36 29.3203 36H32.1328C34.2652 36 36 34.2652 36 32.1328V9.63281C36 7.50044 34.2652 5.76562 32.1328 5.76562ZM30.7365 2.37916C30.409 3.78302 29.7404 6.02029 28.4665 8.25552L24.8951 8.96976C24.5137 9.04605 24.2052 9.3261 24.0925 9.69834C23.9798 10.0706 24.0811 10.4747 24.3562 10.7498L25.5961 11.9897C23.3771 14.1032 20.6775 15.3404 18.5628 16.046L22.8646 11.7442C23.2765 11.3323 23.2765 10.6645 22.8646 10.2526C22.4529 9.84072 21.7851 9.84072 21.3731 10.2526L17.0714 14.5543C17.8038 12.3589 19.109 9.5336 21.373 7.26946C24.456 4.18654 28.5811 2.8802 30.7365 2.37916ZM2.10938 5.41406C2.10938 4.4448 2.89793 3.65624 3.86719 3.65624H5.625V22.6406H3.86719C3.23466 22.6406 2.637 22.7933 2.10938 23.0637V5.41406ZM3.86719 28.2656C2.89793 28.2656 2.10938 27.4771 2.10938 26.5078C2.10938 25.5385 2.89793 24.75 3.86719 24.75H6.67969C7.26216 24.75 7.73438 24.2778 7.73438 23.6953V7.87499H18.0951C15.2475 11.7872 14.3715 16.1628 14.1645 17.4612L11.4294 20.1963C11.0175 20.6082 11.0175 21.2759 11.4294 21.6878C11.6353 21.8938 11.9052 21.9968 12.1751 21.9968C12.445 21.9968 12.715 21.8938 12.9208 21.6878L15.656 18.9527C17.1941 18.7075 23.0509 17.524 27.3391 13.2358C27.4809 13.0941 27.606 12.9551 27.7271 12.8208C27.7679 12.7755 27.8087 12.7302 27.8499 12.6851C28.2305 12.2688 28.2161 11.6266 27.8172 11.2277L27.2412 10.6517L29.3437 10.2312C29.6343 10.1732 29.887 9.99555 30.04 9.74186C30.4176 9.11587 30.7503 8.48903 31.0435 7.87499H32.1328C33.1021 7.87499 33.8906 8.66355 33.8906 9.63281V28.69C33.3628 28.4193 32.7656 28.2656 32.1328 28.2656H29.3203H3.86719ZM32.1328 33.8906H30.375V30.375H32.1328C33.1021 30.375 33.8906 31.1635 33.8906 32.1328C33.8906 33.1021 33.1021 33.8906 32.1328 33.8906Z" fill="white"/>
</svg>
