<svg width="64" height="64" viewBox="0 0 64 64" fill="none" xmlns="http://www.w3.org/2000/svg">
    <path d="M48.3373 8.33569L48.9869 9.39121C50.5607 11.9485 50.5494 15.1371 49.061 17.6555C50.0505 17.7111 51.025 17.9559 51.9345 18.3765L53.0594 18.8967L53.0942 20.1356C53.1976 23.8146 50.7645 27.1242 47.1653 28.0886C45.5862 28.5117 43.9489 28.4392 42.4468 27.911C41.2308 30.0549 39.3709 31.7901 37.1296 32.8514C43.3033 34.9611 47.7838 40.7789 47.9925 47.678L48.0001 48.1818V53.9999C48.0001 55.0256 47.228 55.871 46.2333 55.9865L46.0001 55.9999H18.0001C16.9744 55.9999 16.1291 55.2279 16.0135 54.2332L16.0001 53.9999V48.1818C16.0001 41.063 20.5474 35.0119 26.8707 32.8492C24.5958 31.7744 22.7137 30.0027 21.4981 27.8104C19.924 28.4287 18.1846 28.5371 16.5107 28.0886C12.9116 27.1242 10.4784 23.8146 10.5818 20.1356L10.6166 18.8967L11.7415 18.3765C12.7481 17.911 13.8341 17.6608 14.9356 17.6392C13.4526 15.1252 13.4442 11.9437 15.0151 9.39121L15.6647 8.33569L16.8991 8.44765C18.7489 8.61542 20.4899 9.41779 21.8301 10.7579C22.6153 11.5432 23.2067 12.4571 23.599 13.4361C25.7591 11.3107 28.7265 9.99993 32.0001 9.99993C35.2739 9.99993 38.2415 11.3109 40.4066 13.4366C40.7953 12.4571 41.3867 11.5432 42.1719 10.7579C43.5121 9.41779 45.2531 8.61542 47.1029 8.44765L48.3373 8.33569ZM37.9385 37.594L37.9315 37.6678C37.448 43.5248 34.4407 48.6661 29.9997 52.0017L43.9986 51.9997L44.0001 48.1818C44.0001 43.6442 41.5577 39.6903 37.9385 37.594ZM32.0001 35.9999C25.529 35.9999 20.2452 41.2034 20.0084 47.7247L20.0001 48.1818L20 51.8762C27.8376 50.8989 33.9148 44.2529 33.9992 36.1705C33.3483 36.0575 32.6808 35.9999 32.0001 35.9999ZM32.0001 13.9999C27.5818 13.9999 24.0001 17.5817 24.0001 21.9999C24.0001 26.4182 27.5818 29.9999 32.0001 29.9999C36.4184 29.9999 40.0001 26.4182 40.0001 21.9999C40.0001 17.5817 36.4184 13.9999 32.0001 13.9999ZM48.583 21.6377C48.3525 21.6378 48.1206 21.658 47.8897 21.6987L47.5442 21.7754C46.2739 22.1158 45.2937 23.0413 44.8456 24.2027L44.7955 24.3485L45.0916 24.3626C45.3221 24.3626 45.5538 24.3424 45.7847 24.3016L46.13 24.2249C47.4002 23.8846 48.3807 22.959 48.8294 21.7975L48.8782 21.6499L48.583 21.6377ZM15.093 21.6377L14.7978 21.6499L14.8466 21.7975C15.2953 22.959 16.2758 23.8846 17.546 24.2249L17.8913 24.3016C18.1222 24.3424 18.3539 24.3626 18.5844 24.3626L18.8805 24.3485L18.8304 24.2027C18.3823 23.0413 17.4021 22.1158 16.1318 21.7754L15.7863 21.6987C15.5554 21.658 15.3235 21.6378 15.093 21.6377ZM46.0921 12.8114L45.8311 12.9477C45.6315 13.063 45.4408 13.1964 45.2612 13.3472L45.0004 13.5864C44.0704 14.5163 43.6843 15.8079 43.8769 17.0377L43.9058 17.1898L44.1699 17.0533C44.3695 16.9379 44.5601 16.8046 44.7396 16.6539L45.0004 16.4148C45.9302 15.4849 46.3166 14.1931 46.1244 12.9629L46.0921 12.8114ZM17.9099 12.8114L17.8776 12.9629C17.6855 14.1931 18.0718 15.4849 19.0017 16.4148L19.2624 16.6539C19.4419 16.8046 19.6325 16.9379 19.8321 17.0533L20.0963 17.1898L20.1251 17.0377C20.3177 15.8079 19.9316 14.5163 19.0017 13.5864L18.7408 13.3472C18.5612 13.1964 18.3705 13.063 18.1709 12.9477L17.9099 12.8114Z" fill="#955CF3"/>
</svg>
