<svg width="64" height="64" viewBox="0 0 64 64" fill="none" xmlns="http://www.w3.org/2000/svg">
    <path d="M19.4142 44.5859C20.1352 45.3069 20.1906 46.4413 19.5806 47.2259L19.4142 47.4143L11.4142 55.4143C10.6332 56.1954 9.36684 56.1954 8.58579 55.4143C7.86482 54.6934 7.80936 53.5589 8.41941 52.7743L8.58579 52.5859L16.5858 44.5859C17.3668 43.8048 18.6332 43.8048 19.4142 44.5859ZM23.4142 50.5859C24.1352 51.3069 24.1906 52.4413 23.5806 53.2259L23.4142 53.4143L21.4142 55.4143C20.6332 56.1954 19.3668 56.1954 18.5858 55.4143C17.8648 54.6934 17.8094 53.5589 18.4194 52.7743L18.5858 52.5859L20.5858 50.5859C21.3668 49.8048 22.6332 49.8048 23.4142 50.5859ZM54.9706 9.02955C57.3461 11.4051 55.099 17.1613 52.4042 20.0708L52.1421 20.3433L50.7279 21.7575V21.7546L37.8555 34.6291C39.9191 38.4956 37.5107 46.0369 32.9724 50.8178L32.6343 51.1648C31.6253 52.1738 30.4404 52.1961 29.3935 51.3148L29.1714 51.1121L24.0724 46.0087L23.8688 45.7752L23.8498 45.7513C23.7723 45.6918 23.6967 45.6262 23.6151 45.5503L23.4875 45.4281L18.5383 40.4789C18.3788 40.3157 18.3044 40.2283 18.1906 40.0661L18.2264 40.1179L18.0406 39.9675L17.8577 39.7984L13.0194 34.9607C11.8634 33.8047 11.5793 32.6218 12.8353 31.3658C17.5915 26.6096 25.412 24.0295 29.3728 26.1456L32.3219 23.1933L32.3431 23.1717L32.3672 23.1505L42.9082 12.6067L43.6569 11.858C46.4639 9.05093 52.5184 6.57739 54.9706 9.02955ZM34.6144 37.8682L28.1005 44.3849L30.8681 47.1497L31.1062 46.8542C32.1805 45.4666 33.0762 43.8655 33.6989 42.2455L33.9488 41.5506L34.1415 40.9337C34.4275 39.9472 34.5737 39.0576 34.6092 38.3247L34.6178 37.9716L34.6144 37.8682ZM13.4142 40.5859C14.1352 41.3069 14.1906 42.4413 13.5806 43.2259L13.4142 43.4143L11.4142 45.4143C10.6332 46.1954 9.36684 46.1954 8.58579 45.4143C7.86482 44.6934 7.80936 43.5589 8.41941 42.7743L8.58579 42.5859L10.5858 40.5859C11.3668 39.8048 12.6332 39.8048 13.4142 40.5859ZM33.7574 27.4115L30.7163 30.4545L22.4451 38.7266L25.2735 41.555L36.5858 30.2428L33.7574 27.4115ZM26.0285 29.3823C25.2364 29.3815 24.2173 29.5249 23.0664 29.8586C21.2422 30.3875 19.3753 31.2965 17.7454 32.4501L17.1459 32.8939L16.8476 33.132L19.6166 35.8982L26.1291 29.3829L26.0285 29.3823ZM45.0711 16.0978L36.5858 24.5831L39.4142 27.4115L47.8995 18.9262L45.0711 16.0978ZM52.005 11.9952L51.7189 12.0328C51.2644 12.1096 50.6963 12.282 50.0701 12.5379C49.583 12.7368 49.0828 12.9785 48.6106 13.235L48.1493 13.4953L48.1328 13.5055L50.4932 15.8659L50.7822 15.358L51.048 14.8446L51.2945 14.3217L51.4623 13.93C51.7181 13.3038 51.8905 12.7357 51.9673 12.2812L52.0018 12.0225L52.005 11.9952Z" fill="#00BEF0"/>
</svg>
