<svg width="64" height="64" viewBox="0 0 64 64" fill="none" xmlns="http://www.w3.org/2000/svg">
    <path d="M37 10C40.5272 10 43.4451 12.6088 43.9294 16.0021L44 16C47.3137 16 50 18.6863 50 22C50 23.2085 49.6427 24.3336 49.028 25.2753C50.8247 26.5395 52 28.6325 52 31C52 32.8101 51.3129 34.4598 50.1854 35.7024C51.305 36.7914 52 38.3145 52 40C52 42.6221 50.318 44.8514 47.9741 45.6677C47.6338 50.3266 43.7459 54 39 54C36.1728 54 33.6502 52.6964 32.0002 50.6576C30.3498 52.6964 27.8272 54 25 54C20.2541 54 16.3662 50.3266 16.0244 45.6679C13.682 44.8514 12 42.6221 12 40C12 38.3145 12.695 36.7914 13.814 35.7015C12.6871 34.4598 12 32.8101 12 31C12 28.6325 13.1753 26.5395 14.9743 25.2727C14.3573 24.3336 14 23.2085 14 22C14 18.6863 16.6863 16 20 16L20.0706 16.0021C20.5549 12.6088 23.4728 10 27 10C28.96 10 30.7318 10.8055 32.0025 12.1036C33.2682 10.8055 35.04 10 37 10ZM37 14C35.3431 14 34 15.3431 34 17L34.0002 24.3413C34.6257 24.1203 35.2988 24 36 24C37.1046 24 38 24.8954 38 26C38 27.1046 37.1046 28 36 28L35.7668 28.0135C34.7721 28.129 34 28.9743 34 30V38C34 39.0257 34.7721 39.871 35.7668 39.9865L36 40C37.1046 40 38 40.8954 38 42C38 43.1046 37.1046 44 36 44C35.2988 44 34.6257 43.8797 34.0002 43.6587L34 45L34.0106 45.3288C34.1799 47.9369 36.349 50 39 50C41.5433 50 43.643 48.1012 43.9589 45.6439C41.6487 44.807 40 42.596 40 40C40 38.8954 40.8954 38 42 38C43.1046 38 44 38.8954 44 40L44.0135 40.2332C44.129 41.2279 44.9743 42 46 42C47.1046 42 48 41.1046 48 40C48 38.8954 47.1046 38 46 38L45.7668 37.9865C45.7295 37.9822 45.6926 37.9769 45.656 37.9705L45.3841 37.9896L45 38C43.8954 38 43 37.1046 43 36C43 34.8954 43.8954 34 45 34L45.2889 33.9863C46.8102 33.8409 48 32.5594 48 31C48 29.3431 46.6569 28 45 28C43.3431 28 42 29.3431 42 31L41.9865 31.2332C41.871 32.2279 41.0257 33 40 33C38.8954 33 38 32.1046 38 31C38 27.8596 40.068 25.2022 42.9164 24.3153C43.2294 24.1168 43.6011 24 44 24L44.2332 23.9865C45.2279 23.871 46 23.0257 46 22C46 20.8954 45.1046 20 44 20C42.8954 20 42 20.8954 42 22L41.9865 22.2332C41.871 23.2279 41.0257 24 40 24C38.8954 24 38 23.1046 38 22C38 20.1954 38.7966 18.577 40.0574 17.477C40.02 17.3255 40 17.1651 40 17L39.9863 16.7111C39.8409 15.1898 38.5594 14 37 14ZM27 14C25.4406 14 24.1591 15.1898 24.0137 16.7111L24 17C24 17.1651 23.98 17.3255 23.9423 17.479C25.2034 18.577 26 20.1954 26 22C26 23.1046 25.1046 24 24 24C22.9743 24 22.129 23.2279 22.0135 22.2332L22 22C22 20.8954 21.1046 20 20 20C18.8954 20 18 20.8954 18 22C18 23.0257 18.7721 23.871 19.7668 23.9865L20 24C20.3989 24 20.7706 24.1168 21.0826 24.3181C23.932 25.2022 26 27.8596 26 31C26 32.1046 25.1046 33 24 33C22.9743 33 22.129 32.2279 22.0135 31.2332L22 31C22 29.3431 20.6569 28 19 28C17.3431 28 16 29.3431 16 31C16 32.5594 17.1898 33.8409 18.7111 33.9863L19 34C20.1046 34 21 34.8954 21 36C21 37.1046 20.1046 38 19 38C18.7784 38 18.5592 37.9897 18.3429 37.9696L18.2332 37.9865L18 38C16.8954 38 16 38.8954 16 40C16 41.1046 16.8954 42 18 42C19.0257 42 19.871 41.2279 19.9865 40.2332L20 40C20 38.8954 20.8954 38 22 38C23.1046 38 24 38.8954 24 40C24 42.596 22.3513 44.807 20.0438 45.6429C20.357 48.1012 22.4567 50 25 50C27.651 50 29.8201 47.9369 29.9894 45.3288L30 45L30.0018 43.658C29.3757 43.8795 28.7019 44 28 44C26.8954 44 26 43.1046 26 42C26 40.8954 26.8954 40 28 40L28.2332 39.9865C29.2279 39.871 30 39.0257 30 38V30C30 28.9743 29.2279 28.129 28.2332 28.0135L28 28C26.8954 28 26 27.1046 26 26C26 24.8954 26.8954 24 28 24C28.7019 24 29.3757 24.1205 30.0018 24.342L30 17C30 15.3431 28.6569 14 27 14Z" fill="#F25D9F"/>
</svg>
