<svg width="64" height="64" viewBox="0 0 64 64" fill="none" xmlns="http://www.w3.org/2000/svg">
    <path d="M53.2145 22.0004C53.5644 22.0025 53.7793 22.014 54.0384 22.0634C54.603 22.1711 55.1166 22.4408 55.5019 22.9558C55.8177 23.3781 55.9358 23.7936 55.9793 24.2714C55.9903 24.3929 55.9956 24.4891 55.9983 24.6317V53.5948C55.9962 53.7286 55.9918 53.817 55.9823 53.9285L55.9604 54.1212C55.942 54.2479 55.9147 54.3728 55.8729 54.5061C55.7342 54.9482 55.4794 55.3544 55.0036 55.6626C54.0175 56.3015 53.2491 56.0566 52.5372 55.5362C52.3459 55.3964 52.1783 55.2436 51.9163 54.9855L51.1865 54.2513C50.8193 53.8769 50.5263 53.5684 50.2091 53.2234L48.5826 51.4356C48.2914 51.1269 47.9886 50.8171 47.5857 50.4142L47.164 49.996L27.0004 50C26.7398 50 26.5852 49.999 26.4545 49.9928L26.201 49.9722C25.6464 49.9106 25.1556 49.7341 24.711 49.2899C24.266 48.8454 24.089 48.3542 24.0273 47.7992C24.0022 47.5741 23.9994 47.4341 23.9994 47L23.9998 24.7888C24.0019 24.4384 24.0133 24.2233 24.0626 23.9642C24.1699 23.3999 24.4384 22.8865 24.9525 22.5006C25.3752 22.1833 25.7916 22.0645 26.2704 22.0208C26.311 22.0171 26.3487 22.014 26.3863 22.0115L26.6312 22.002L53.2145 22.0004ZM27.998 25.998V46L47.3323 46.002C47.9448 46.0109 48.2648 46.0549 48.6781 46.2346L49.0367 46.4098C49.3512 46.5794 49.558 46.7448 49.9857 47.1613L50.7398 47.9131C51.1492 48.3273 51.4689 48.6617 51.8073 49.0287L52 49.24V26L27.998 25.998ZM39.2258 28.4195L39.4142 28.5858L42.8297 32H46C47.1045 32 48 32.8954 48 34C48 35.0257 47.2279 35.871 46.2332 35.9865L46 36H42C42 38.1087 43.6317 39.8363 45.7014 39.989L46 40C47.1045 40 48 40.8954 48 42C48 43.1046 47.1045 44 46 44C43.6095 44 41.464 42.9516 39.9981 41.2895C38.5359 42.9516 36.3904 44 34 44C32.8954 44 32 43.1046 32 42C32 40.9743 32.772 40.129 33.7667 40.0135L34 40C36.1087 40 37.8363 38.3682 37.989 36.2985L38 36H34C32.8954 36 32 35.1046 32 34C32 32.9743 32.772 32.129 33.7667 32.0135L34 32H37.1697L36.5857 31.4142C35.8047 30.6331 35.8047 29.3668 36.5858 28.5857C37.3068 27.8648 38.4413 27.8094 39.2258 28.4195ZM37 8L37.5454 8.00724C37.6324 8.01138 37.7087 8.01783 37.7987 8.02781C38.3532 8.08936 38.8438 8.26578 39.2884 8.70987C39.7334 9.15435 39.9104 9.64545 39.9721 10.2003L39.9927 10.4537C39.9989 10.5842 40 10.7386 40 10.9989V16C40 17.1046 39.1045 18 38 18C36.9743 18 36.1289 17.2279 36.0134 16.2332L36 16L35.998 11.998H11.998V35.248L12.1931 35.0338L12.8326 34.3515C12.944 34.2357 13.0602 34.1164 13.1847 33.9899L14.0158 33.1606C14.5049 32.6847 14.7028 32.5386 15.1041 32.3375C15.5594 32.1094 15.8593 32.0336 16.3849 32.01L17 32H18C19.1045 32 20 32.8954 20 34C20 35.0257 19.2279 35.871 18.2332 35.9865L18 36L16.834 35.996L16.4134 36.4155C15.8796 36.9487 15.5282 37.3135 15.1383 37.7406L13.804 39.2302C13.4849 39.5796 13.1858 39.8948 12.8123 40.2742L11.9983 41.0869C11.9002 41.182 11.8292 41.2478 11.7483 41.3196C11.2135 41.7943 10.8717 42.0124 10.1189 42.0103C9.32511 42.008 8.66156 41.572 8.30798 40.9412C8.13817 40.6383 8.06818 40.3689 8.03092 40.0702L8.01034 39.8603C8.00575 39.7908 8.00316 39.7164 8.00171 39.6216L8.00255 10.6028C8.00575 10.4464 8.01273 10.3417 8.02761 10.2066C8.08863 9.65258 8.26327 9.16324 8.70461 8.71805C9.14904 8.26973 9.64228 8.09061 10.1991 8.02821C10.3346 8.01301 10.4393 8.0059 10.5953 8.00264L11 8H37ZM20 24C21.1045 24 22 24.8954 22 26C22 27.0257 21.2279 27.871 20.2332 27.9865L20 28H18C16.8954 28 16 27.1046 16 26C16 24.9743 16.772 24.129 17.7667 24.0135L18 24H20ZM30 16C31.1045 16 32 16.8954 32 18C32 19.0257 31.2279 19.871 30.2332 19.9865L30 20H18C16.8954 20 16 19.1046 16 18C16 16.9743 16.772 16.129 17.7667 16.0135L18 16H30Z" fill="#FFC55C"/>
</svg>
