<svg width="36" height="36" viewBox="0 0 36 36" fill="none" xmlns="http://www.w3.org/2000/svg">
    <g clip-path="url(#clip0)">
        <path d="M33.1176 23.2036C33.1176 21.5058 31.9078 20.0853 30.305 19.7587V15.9613C30.305 15.6153 30.1354 15.2915 29.8511 15.0944C29.5667 14.8973 29.2037 14.8521 28.8799 14.9737L26.8669 15.7286C25.545 14.3543 23.9382 13.3192 22.1774 12.6838C23.9077 11.4017 25.0315 9.34543 25.0315 7.0314C25.0315 3.15422 21.8772 0 18 0C14.1229 0 10.9686 3.15422 10.9686 7.0314C10.9686 9.34543 12.0924 11.4017 13.8227 12.6838C12.0618 13.3193 10.4551 14.3544 9.13317 15.7286L7.12015 14.9737C6.79629 14.8521 6.43332 14.8973 6.14904 15.0944C5.8647 15.2915 5.6951 15.6153 5.6951 15.9613V19.7587C4.09229 20.0853 2.88254 21.5057 2.88254 23.2036C2.88254 24.9015 4.09229 26.3219 5.6951 26.6486V30.7272C5.6951 31.1669 5.96785 31.5604 6.37946 31.7148L17.6297 35.9336C17.8669 36.0221 18.1331 36.0221 18.3703 35.9336L29.6206 31.7148C30.0322 31.5604 30.3049 31.1669 30.3049 30.7272V26.6486C31.9078 26.3219 33.1176 24.9014 33.1176 23.2036ZM13.0781 7.0314C13.0781 4.31742 15.2861 2.10942 18 2.10942C20.714 2.10942 22.922 4.31742 22.922 7.0314C22.922 9.74538 20.714 11.9534 18 11.9534C15.2861 11.9534 13.0781 9.74538 13.0781 7.0314ZM18 14.0628C20.4711 14.0628 22.8313 14.9559 24.6728 16.5514L18 19.0537L11.3273 16.5514C13.1689 14.9559 15.5291 14.0628 18 14.0628ZM4.99196 23.2036C4.99196 22.4282 5.62282 21.7973 6.39824 21.7973H7.10138V24.6099H6.39824C5.62282 24.6099 4.99196 23.979 4.99196 23.2036ZM7.80452 26.684C8.60589 26.5206 9.2108 25.8104 9.2108 24.9615V21.4458C9.2108 20.5969 8.60589 19.8866 7.80452 19.7233V17.4832L16.9453 20.911V33.4242L7.80452 29.9964V26.684ZM19.0548 33.4241V20.911L28.1956 17.4832V19.7233C27.3942 19.8866 26.7893 20.5969 26.7893 21.4458V24.9615C26.7893 25.8104 27.3942 26.5206 28.1956 26.684V29.9963L19.0548 33.4241ZM29.6019 24.6099H28.8987V21.7973H29.6019C30.3773 21.7973 31.0081 22.4282 31.0081 23.2036C31.0081 23.979 30.3774 24.6099 29.6019 24.6099Z" fill="#035FFE"/>
    </g>
    <defs>
        <clipPath id="clip0">
            <rect width="36" height="36" fill="white"/>
        </clipPath>
    </defs>
</svg>
